<?xml version="1.0" encoding="UTF-8" standalone="no"?><!DOCTYPE svg PUBLIC "-//W3C//DTD SVG 1.1//EN" "http://www.w3.org/Graphics/SVG/1.1/DTD/svg11.dtd"><svg width="100%" height="100%" viewBox="0 0 1920 1080" version="1.1" xmlns="http://www.w3.org/2000/svg" xmlns:xlink="http://www.w3.org/1999/xlink" xml:space="preserve" xmlns:serif="http://www.serif.com/" style="fill-rule:evenodd;clip-rule:evenodd;stroke-linejoin:round;stroke-miterlimit:2;"><g id="Ebene1"><rect x="0" y="0" width="1922.28" height="875.312" style="fill:url(#_Linear1);"/><path d="M420.218,111.023c38.546,-27.923 -20.818,-70.921 -51.968,-31.663c-13.556,-20.454 -29.73,-21.604 -48.992,0c-21.639,-23.484 -45.464,-20.721 -70.783,0c-14.218,-24.502 -86.903,-21.005 -89.25,15.512c-15.978,9.403 -12.285,48.692 17.07,50.18c12.557,35.473 61.329,29.306 83.666,13.429c14.904,18.994 53.499,19.404 66.678,-2.95c22.336,15.616 38.972,6.89 48.343,-4.095c28.306,21.17 72.401,-12.977 45.236,-40.413Z" style="fill:#fff;fill-opacity:0.75;"/><path d="M1315.28,129.235c93.979,25.848 88.319,-106.783 -6.731,-72.077c-13.556,-20.453 -94.456,-20.72 -119.776,0c-14.217,-24.501 -86.902,-21.004 -89.25,15.513c-15.977,9.402 -12.284,48.691 17.07,50.18c12.558,35.473 61.33,29.306 83.666,13.429c29.748,27.957 119.746,12.451 115.021,-7.045Z" style="fill:#fff;fill-opacity:0.75;"/><path d="M1772.28,159.308c57.145,46.927 107.611,-69.473 6.981,-55.404c-21.639,-23.483 -45.463,-20.721 -70.783,0c-65.027,-17.276 -69.116,103.284 11.486,79.121c24.6,18.805 56.581,-1.704 52.316,-23.717Z" style="fill:#fff;fill-opacity:0.75;"/><rect x="753.352" y="472.951" width="146.359" height="462.528" style="fill:#8cbfc8;"/><rect x="176.454" y="554.982" width="146.359" height="462.528" style="fill:#8cbfc8;"/><rect x="414.631" y="418.4" width="146.359" height="462.528" style="fill:#8cbfc8;"/><rect x="1025.5" y="453.792" width="146.359" height="462.528" style="fill:#8cbfc8;"/><g><rect x="863.513" y="346.287" width="125.154" height="469.417" style="fill:#95d5e1;"/><rect x="988.017" y="346.287" width="26.273" height="469.417" style="fill:#8fc9d4;"/><path d="M977.377,696.141l0,32.01l-19.308,0l0,-32.01l19.308,0Zm-28.322,0l0,32.01l-19.308,0l0,-32.01l19.308,0Zm-54.943,0l0,32.01l-19.309,0l0,-32.01l19.309,0Zm26.639,0l0,32.01l-19.309,0l0,-32.01l19.309,0Zm56.626,-41.892l0,32.01l-19.308,0l0,-32.01l19.308,0Zm-83.265,0l0,32.01l-19.309,0l0,-32.01l19.309,0Zm54.943,0l0,32.01l-19.308,0l0,-32.01l19.308,0Zm-28.304,0l0,32.01l-19.309,0l0,-32.01l19.309,0Zm56.626,-44.134l0,32.01l-19.308,0l0,-32.01l19.308,0Zm-83.265,0l0,32.01l-19.309,0l0,-32.01l19.309,0Zm54.943,0l0,32.01l-19.308,0l0,-32.01l19.308,0Zm-28.304,0l0,32.01l-19.309,0l0,-32.01l19.309,0Zm0,-39.523l0,32.01l-19.309,0l0,-32.01l19.309,0Zm56.626,0l0,32.01l-19.308,0l0,-32.01l19.308,0Zm-83.265,0l0,32.01l-19.309,0l0,-32.01l19.309,0Zm54.943,0l0,32.01l-19.308,0l0,-32.01l19.308,0Zm-28.304,-41.891l0,32.01l-19.309,0l0,-32.01l19.309,0Zm28.304,0l0,32.01l-19.308,0l0,-32.01l19.308,0Zm-54.943,0l0,32.01l-19.309,0l0,-32.01l19.309,0Zm83.265,0l0,32.01l-19.308,0l0,-32.01l19.308,0Zm-56.626,-44.134l0,32.009l-19.309,0l0,-32.009l19.309,0Zm28.304,0l0,32.009l-19.308,0l0,-32.009l19.308,0Zm28.322,0l0,32.009l-19.308,0l0,-32.009l19.308,0Zm-83.265,0l0,32.009l-19.309,0l0,-32.009l19.309,0Zm26.639,-38.453l0,32.01l-19.309,0l0,-32.01l19.309,0Zm56.626,0l0,32.01l-19.308,0l0,-32.01l19.308,0Zm-83.265,0l0,32.01l-19.309,0l0,-32.01l19.309,0Zm54.943,0l0,32.01l-19.308,0l0,-32.01l19.308,0Zm-28.304,-41.892l0,32.01l-19.309,0l0,-32.01l19.309,0Zm28.304,0l0,32.01l-19.308,0l0,-32.01l19.308,0Zm-54.943,0l0,32.01l-19.309,0l0,-32.01l19.309,0Zm83.265,0l0,32.01l-19.308,0l0,-32.01l19.308,0Zm0,-44.134l0,32.01l-19.308,0l0,-32.01l19.308,0Zm-83.265,0l0,32.01l-19.309,0l0,-32.01l19.309,0Zm26.639,0l0,32.01l-19.309,0l0,-32.01l19.309,0Zm28.304,0l0,32.01l-19.308,0l0,-32.01l19.308,0Z" style="fill:#8bc3cd;"/></g><g><rect x="571.926" y="326.002" width="125.154" height="469.417" style="fill:#95d5e1;"/><rect x="696.43" y="326.002" width="26.273" height="469.417" style="fill:#8fc9d4;"/><path d="M685.79,675.856l0,32.01l-19.309,0l0,-32.01l19.309,0Zm-28.322,0l0,32.01l-19.309,0l0,-32.01l19.309,0Zm-54.944,0l0,32.01l-19.309,0l0,-32.01l19.309,0Zm26.639,0l0,32.01l-19.309,0l0,-32.01l19.309,0Zm56.627,-41.891l0,32.009l-19.309,0l0,-32.009l19.309,0Zm-83.266,0l0,32.009l-19.309,0l0,-32.009l19.309,0Zm54.944,0l0,32.009l-19.309,0l0,-32.009l19.309,0Zm-28.305,0l0,32.009l-19.309,0l0,-32.009l19.309,0Zm56.627,-44.135l0,32.01l-19.309,0l0,-32.01l19.309,0Zm-83.266,0l0,32.01l-19.309,0l0,-32.01l19.309,0Zm54.944,0l0,32.01l-19.309,0l0,-32.01l19.309,0Zm-28.305,0l0,32.01l-19.309,0l0,-32.01l19.309,0Zm0,-39.523l0,32.01l-19.309,0l0,-32.01l19.309,0Zm56.627,0l0,32.01l-19.309,0l0,-32.01l19.309,0Zm-83.266,0l0,32.01l-19.309,0l0,-32.01l19.309,0Zm54.944,0l0,32.01l-19.309,0l0,-32.01l19.309,0Zm-28.305,-41.891l0,32.01l-19.309,0l0,-32.01l19.309,0Zm28.305,0l0,32.01l-19.309,0l0,-32.01l19.309,0Zm-54.944,0l0,32.01l-19.309,0l0,-32.01l19.309,0Zm83.266,0l0,32.01l-19.309,0l0,-32.01l19.309,0Zm-56.627,-44.134l0,32.009l-19.309,0l0,-32.009l19.309,0Zm28.305,0l0,32.009l-19.309,0l0,-32.009l19.309,0Zm28.322,0l0,32.009l-19.309,0l0,-32.009l19.309,0Zm-83.266,0l0,32.009l-19.309,0l0,-32.009l19.309,0Zm26.639,-38.453l0,32.01l-19.309,0l0,-32.01l19.309,0Zm56.627,0l0,32.01l-19.309,0l0,-32.01l19.309,0Zm-83.266,0l0,32.01l-19.309,0l0,-32.01l19.309,0Zm54.944,0l0,32.01l-19.309,0l0,-32.01l19.309,0Zm-28.305,-41.891l0,32.009l-19.309,0l0,-32.009l19.309,0Zm28.305,0l0,32.009l-19.309,0l0,-32.009l19.309,0Zm-54.944,0l0,32.009l-19.309,0l0,-32.009l19.309,0Zm83.266,0l0,32.009l-19.309,0l0,-32.009l19.309,0Zm0,-44.135l0,32.01l-19.309,0l0,-32.01l19.309,0Zm-83.266,0l0,32.01l-19.309,0l0,-32.01l19.309,0Zm26.639,0l0,32.01l-19.309,0l0,-32.01l19.309,0Zm28.305,0l0,32.01l-19.309,0l0,-32.01l19.309,0Z" style="fill:#8bc3cd;"/></g><g><rect x="337.033" y="356.563" width="125.154" height="469.417" style="fill:#95d5e1;"/><rect x="461.537" y="356.563" width="26.273" height="469.417" style="fill:#8fc9d4;"/><path d="M450.897,706.418l0,32.009l-19.308,0l0,-32.009l19.308,0Zm-28.322,0l0,32.009l-19.308,0l0,-32.009l19.308,0Zm-54.943,0l0,32.009l-19.309,0l0,-32.009l19.309,0Zm26.638,0l0,32.009l-19.308,0l0,-32.009l19.308,0Zm56.627,-41.892l0,32.01l-19.308,0l0,-32.01l19.308,0Zm-83.265,0l0,32.01l-19.309,0l0,-32.01l19.309,0Zm54.943,0l0,32.01l-19.308,0l0,-32.01l19.308,0Zm-28.305,0l0,32.01l-19.308,0l0,-32.01l19.308,0Zm56.627,-44.134l0,32.01l-19.308,0l0,-32.01l19.308,0Zm-83.265,0l0,32.01l-19.309,0l0,-32.01l19.309,0Zm54.943,0l0,32.01l-19.308,0l0,-32.01l19.308,0Zm-28.305,0l0,32.01l-19.308,0l0,-32.01l19.308,0Zm0,-39.523l0,32.01l-19.308,0l0,-32.01l19.308,0Zm56.627,0l0,32.01l-19.308,0l0,-32.01l19.308,0Zm-83.265,0l0,32.01l-19.309,0l0,-32.01l19.309,0Zm54.943,0l0,32.01l-19.308,0l0,-32.01l19.308,0Zm-28.305,-41.891l0,32.009l-19.308,0l0,-32.009l19.308,0Zm28.305,0l0,32.009l-19.308,0l0,-32.009l19.308,0Zm-54.943,0l0,32.009l-19.309,0l0,-32.009l19.309,0Zm83.265,0l0,32.009l-19.308,0l0,-32.009l19.308,0Zm-56.627,-44.135l0,32.01l-19.308,0l0,-32.01l19.308,0Zm28.305,0l0,32.01l-19.308,0l0,-32.01l19.308,0Zm28.322,0l0,32.01l-19.308,0l0,-32.01l19.308,0Zm-83.265,0l0,32.01l-19.309,0l0,-32.01l19.309,0Zm26.638,-38.452l0,32.009l-19.308,0l0,-32.009l19.308,0Zm56.627,0l0,32.009l-19.308,0l0,-32.009l19.308,0Zm-83.265,0l0,32.009l-19.309,0l0,-32.009l19.309,0Zm54.943,0l0,32.009l-19.308,0l0,-32.009l19.308,0Zm-28.305,-41.892l0,32.01l-19.308,0l0,-32.01l19.308,0Zm28.305,0l0,32.01l-19.308,0l0,-32.01l19.308,0Zm-54.943,0l0,32.01l-19.309,0l0,-32.01l19.309,0Zm83.265,0l0,32.01l-19.308,0l0,-32.01l19.308,0Zm0,-44.134l0,32.01l-19.308,0l0,-32.01l19.308,0Zm-83.265,0l0,32.01l-19.309,0l0,-32.01l19.309,0Zm26.638,0l0,32.01l-19.308,0l0,-32.01l19.308,0Zm28.305,0l0,32.01l-19.308,0l0,-32.01l19.308,0Z" style="fill:#8bc3cd;"/></g><path d="M1920,950.677l-210.227,-93.871c-24.063,-66.388 -76.44,-87.689 -148.404,-77.8c-59.373,-56.265 -120.243,-75.195 -184.889,0c-43.159,-73.461 -92.282,-96.422 -145.955,-80.869c-35.71,-22.28 -73.087,-16.58 -112.922,30.39c-39.396,-47.489 -84.422,-73.083 -147.009,-30.39c-20.125,-46.139 -55.593,-65.644 -120.79,-33.54c-47.922,-30.787 -87.378,-23.476 -115.789,33.54c-47.44,-19.532 -95.448,-11.267 -144.192,33.02c-53.43,-71.316 -112.431,-72.864 -177.374,0c-33.841,-29.151 -65.219,-22.355 -95.253,0c-57.771,-3.199 -106.74,14.81 -138.608,74.027c-36.542,-5.016 -77.281,14.52 -121.116,52.174l-57.472,-55.343l0,256.664l1922.28,0l-2.277,-108.002Z" style="fill:url(#_Linear2);"/><path d="M785.116,961.717c-34.702,-30.166 -73.23,-59.323 -115.324,-20.939c-11.776,-34.846 -36.771,-54.329 -88.683,-42.526c-13.062,-37.505 -39.754,-49.4 -81.548,-32.916c-27.019,-46.247 -68.852,-59.228 -127.653,-34.109c-25.791,-36.589 -58.157,-52.201 -98.38,-42.755c-6.234,-20.914 -20.234,-24.792 -38.536,-21.928c-26.45,-41.645 -62.372,-56.854 -110.222,-38.784c-22.695,-50.445 -61.344,-77.024 -124.77,-66.538l0,397.457l785.116,-96.962Z" style="fill:url(#_Linear3);"/><path d="M1142.98,941.717c34.702,-30.166 67.413,-49.76 109.506,-11.375c11.777,-34.847 36.771,-54.33 88.684,-42.527c13.062,-37.505 39.753,-49.4 81.548,-32.916c27.019,-46.247 68.852,-59.228 127.653,-34.109c25.79,-36.589 67.838,-48.235 86.14,-45.371c26.45,-41.645 113.148,-76.166 160.997,-58.096c44.807,-15.658 124.491,-8.354 122.494,78.381l0,208.789l-777.022,-62.776Z" style="fill:url(#_Linear4);"/><path d="M1922.28,938.001c-629.572,-83.096 -1268.39,-88.553 -1922.28,13.712l0,128.287l1922.28,0l0,-141.999Z" style="fill:url(#_Linear5);"/></g><defs><linearGradient id="_Linear1" x1="0" y1="0" x2="1" y2="0" gradientUnits="userSpaceOnUse" gradientTransform="matrix(4.42523e-14,-875.312,722.696,5.35974e-14,872.602,875.312)"><stop offset="0" style="stop-color:#dbf9ff;stop-opacity:1"/><stop offset="1" style="stop-color:#adf1fe;stop-opacity:1"/></linearGradient><linearGradient id="_Linear2" x1="0" y1="0" x2="1" y2="0" gradientUnits="userSpaceOnUse" gradientTransform="matrix(2.42867e-14,-396.632,396.632,2.42867e-14,961.138,1057.66)"><stop offset="0" style="stop-color:#164d1e;stop-opacity:1"/><stop offset="1" style="stop-color:#427a4a;stop-opacity:1"/></linearGradient><linearGradient id="_Linear3" x1="0" y1="0" x2="1" y2="0" gradientUnits="userSpaceOnUse" gradientTransform="matrix(27.2239,398.698,-398.698,27.2239,35.1514,658.958)"><stop offset="0" style="stop-color:#6f9639;stop-opacity:1"/><stop offset="1" style="stop-color:#406211;stop-opacity:1"/></linearGradient><linearGradient id="_Linear4" x1="0" y1="0" x2="1" y2="0" gradientUnits="userSpaceOnUse" gradientTransform="matrix(-21.8718,276.508,-276.508,-21.8718,1740.87,710.758)"><stop offset="0" style="stop-color:#6f9639;stop-opacity:1"/><stop offset="1" style="stop-color:#406211;stop-opacity:1"/></linearGradient><linearGradient id="_Linear5" x1="0" y1="0" x2="1" y2="0" gradientUnits="userSpaceOnUse" gradientTransform="matrix(-5.14164e-14,204.688,-204.688,-2.74971e-14,961.138,875.312)"><stop offset="0" style="stop-color:#5d5144;stop-opacity:1"/><stop offset="1" style="stop-color:#3e3833;stop-opacity:1"/></linearGradient></defs></svg>