<?xml version="1.0" encoding="UTF-8" standalone="no"?><!DOCTYPE svg PUBLIC "-//W3C//DTD SVG 1.1//EN" "http://www.w3.org/Graphics/SVG/1.1/DTD/svg11.dtd"><svg width="100%" height="100%" viewBox="0 0 405 131" version="1.1" xmlns="http://www.w3.org/2000/svg" xmlns:xlink="http://www.w3.org/1999/xlink" xml:space="preserve" xmlns:serif="http://www.serif.com/" style="fill-rule:evenodd;clip-rule:evenodd;stroke-linejoin:round;stroke-miterlimit:2;"><g><g><path d="M57.955,0l-40.459,0l-17.496,90.594l0.037,20.893c0,26.575 46.822,25.427 46.822,-1.149l-0.358,-19.744l11.454,-90.594Z" style="fill:#32bda8;"/><path d="M46.501,90.594l-46.501,0l0.037,20.893c0,26.575 46.822,25.427 46.822,-1.149l-0.358,-19.744Z" style="fill-opacity:0.25;"/></g><g><path d="M300.346,0.023l40.459,0l17.496,90.594l-0.036,20.893c0,26.575 -46.823,25.427 -46.823,-1.149l0.358,-19.744l-11.454,-90.594Z" style="fill:#fff;"/><path d="M311.8,90.617l46.501,0l-0.036,20.893c0,26.575 -46.823,25.427 -46.823,-1.149l0.358,-19.744Z" style="fill-opacity:0.25;"/></g><g><path d="M139.354,0l-40.459,0l-8.736,90.594l0.037,20.893c0,26.575 45.362,25.427 45.362,-1.149l-0.358,-19.744l4.154,-90.594Z" style="fill:#32bda8;"/><path d="M135.2,90.594l-45.041,0l0.037,20.893c0,26.575 45.362,25.427 45.362,-1.149l-0.358,-19.744Z" style="fill-opacity:0.25;"/></g><g><path d="M218.947,0.023l40.46,0l8.735,90.594l-0.037,20.893c0,26.575 -45.362,25.427 -45.362,-1.149l0.358,-19.744l-4.154,-90.594Z" style="fill:#fff;"/><path d="M223.101,90.617l45.041,0l-0.037,20.893c0,26.575 -45.362,25.427 -45.362,-1.149l0.358,-19.744Z" style="fill-opacity:0.25;"/></g><g><path d="M178.682,0l40.459,0l5.815,90.594l-0.037,20.893c0,26.575 -45.362,25.427 -45.362,-1.149l0.358,-19.744l-1.233,-90.594Z" style="fill:#32bda8;"/><path d="M179.915,90.594l45.041,0l-0.037,20.893c0,26.575 -45.362,25.427 -45.362,-1.149l0.358,-19.744Z" style="fill-opacity:0.25;"/></g><g><path d="M179.557,0l-40.459,0l-4.355,90.594l0.037,20.893c0,26.575 45.362,25.427 45.362,-1.149l-0.358,-19.744l-0.227,-90.594Z" style="fill:#fff;"/><path d="M179.784,90.594l-45.041,0l0.037,20.893c0,26.575 45.362,25.427 45.362,-1.149l-0.358,-19.744Z" style="fill-opacity:0.25;"/></g><g><path d="M340.798,0.023l40.459,0l23.337,90.594l-0.037,20.893c0,26.575 -46.822,25.427 -46.822,-1.149l0.358,-19.744l-17.295,-90.594Z" style="fill:#32bda8;"/><path d="M358.093,90.617l46.501,0l-0.037,20.893c0,26.575 -46.822,25.427 -46.822,-1.149l0.358,-19.744Z" style="fill-opacity:0.25;"/></g><g><path d="M98.686,0l-40.459,0l-14.576,90.594l0.036,20.893c0,26.575 46.823,25.427 46.823,-1.149l-0.358,-19.744l8.534,-90.594Z" style="fill:#fff;"/><path d="M90.152,90.594l-46.501,0l0.036,20.893c0,26.575 46.823,25.427 46.823,-1.149l-0.358,-19.744Z" style="fill-opacity:0.25;"/></g><g><path d="M259.615,0.023l40.459,0l14.576,90.594l-0.036,20.893c0,26.575 -46.823,25.427 -46.823,-1.149l0.358,-19.744l-8.534,-90.594Z" style="fill:#32bda8;"/><path d="M268.149,90.617l46.501,0l-0.036,20.893c0,26.575 -46.823,25.427 -46.823,-1.149l0.358,-19.744Z" style="fill-opacity:0.25;"/></g></g></svg>