<?xml version="1.0" encoding="UTF-8" standalone="no"?><!DOCTYPE svg PUBLIC "-//W3C//DTD SVG 1.1//EN" "http://www.w3.org/Graphics/SVG/1.1/DTD/svg11.dtd"><svg width="100%" height="100%" viewBox="0 0 405 569" version="1.1" xmlns="http://www.w3.org/2000/svg" xmlns:xlink="http://www.w3.org/1999/xlink" xml:space="preserve" xmlns:serif="http://www.serif.com/" style="fill-rule:evenodd;clip-rule:evenodd;stroke-linecap:round;stroke-linejoin:round;stroke-miterlimit:1.5;"><g><g><rect x="70.946" y="100.059" width="260.43" height="223.038" style="fill:#fff;"/><rect x="70.186" y="334.274" width="261.19" height="214.646" style="fill:url(#_Linear1);"/><g opacity="0.56"><text x="129.753px" y="408.887px" style="font-family:'Sniglet-Regular', 'Sniglet', fantasy;font-size:16.816px;fill:#fff;">E<tspan x="138.874px 145.026px 148.681px 157.411px 167.055px 176.144px 179.832px " y="408.887px 408.887px 408.887px 408.887px 408.887px 408.887px 408.887px ">rlebnis</tspan></text><text x="98.991px" y="371.167px" style="font-family:'Sniglet-Regular', 'Sniglet', fantasy;font-size:24px;fill:#fff;">A<tspan x="113.011px 124.586px 133.832px 139.095px 152.23px 165.203px 170.07px 184.02px 197.365px " y="371.167px 371.167px 371.167px 371.167px 371.167px 371.167px 371.167px 371.167px 371.167px ">ction Cam</tspan></text><text x="129.753px" y="436.369px" style="font-family:'Sniglet-Regular', 'Sniglet', fantasy;font-size:16.816px;fill:#fff;">M<tspan x="141.779px 145.467px 154.556px 158.244px 172.652px 182.002px 185.658px 189.345px 196.852px 203.33px 207.018px 214.524px 222.634px " y="436.369px 436.369px 436.369px 436.369px 436.369px 436.369px 436.369px 436.369px 436.369px 436.369px 436.369px 436.369px 436.369px ">inimalistisch</tspan></text><text x="129.753px" y="462.866px" style="font-family:'Sniglet-Regular', 'Sniglet', fantasy;font-size:16.816px;fill:#fff;">S<tspan x="139.25px 148.453px 156.024px 159.712px 169.062px 172.718px 181.448px 184.858px 197.048px 205.778px 214.981px 218.669px 227.399px " y="462.866px 462.866px 462.866px 462.866px 462.866px 462.866px 462.866px 462.866px 462.866px 462.866px 462.866px 462.866px 462.866px ">oziale Medien</tspan></text><text x="129.753px" y="492.087px" style="font-family:'Sniglet-Regular', 'Sniglet', fantasy;font-size:16.816px;fill:#fff;">Q<tspan x="140.8px 149.66px 159.011px 162.666px 166.354px 172.832px 182.182px " y="492.087px 492.087px 492.087px 492.087px 492.087px 492.087px 492.087px ">ualität</tspan></text><text x="129.753px" y="517.545px" style="font-family:'Sniglet-Regular', 'Sniglet', fantasy;font-size:16.816px;fill:#fff;">R<tspan x="139.168px 148.518px 154.833px 163.563px 172.652px 180.224px 189.574px 198.63px 202.286px 211.146px 220.235px " y="517.545px 517.545px 517.545px 517.545px 517.545px 517.545px 517.545px 517.545px 517.545px 517.545px 517.545px ">atenzahlung</tspan></text><path d="M109.584,514.009c-0.596,-0.003 -3.715,0.093 -4.698,0.093c0,0 0.006,0.932 0.018,1.033c0,0 3.945,0.071 4.48,0.075c1.443,0.008 1.597,1.667 0.018,1.707c-0.535,0.014 -3.248,0.094 -4.098,0.094c0.328,0.826 0.783,1.43 1.366,1.811c0.583,0.382 1.19,0.572 1.821,0.572c0.522,0 0.959,-0.056 1.311,-0.168c0.352,-0.113 0.653,-0.238 0.902,-0.376c0.249,-0.137 0.464,-0.262 0.646,-0.375c0.182,-0.113 0.358,-0.169 0.528,-0.169c0.207,0 0.371,0.059 0.492,0.178c0.121,0.119 0.182,0.329 0.182,0.629c0,0.25 -0.094,0.504 -0.282,0.76c-0.188,0.256 -0.461,0.488 -0.82,0.694c-0.358,0.207 -0.786,0.376 -1.283,0.507c-0.498,0.131 -1.057,0.197 -1.676,0.197c-0.546,0 -1.092,-0.088 -1.639,-0.263c-0.546,-0.175 -1.059,-0.441 -1.538,-0.797c-0.48,-0.357 -0.905,-0.801 -1.275,-1.333c-0.37,-0.531 -0.659,-1.154 -0.865,-1.867c-0.389,0 -1.402,0.024 -1.581,0.027c-1.103,0.024 -0.91,-1.778 -0.156,-1.789c0.153,-0.002 1.045,-0.077 1.445,-0.077c0,0 0.007,-0.969 0.019,-1.07c-0.607,-0.012 -0.874,-0.049 -1.128,-0.048c-1.233,0.003 -1.233,-1.76 0.015,-1.76c0.16,0 1.404,-0.049 1.404,-0.049c0.194,-0.701 0.467,-1.327 0.819,-1.877c0.353,-0.55 0.759,-1.013 1.221,-1.389c0.461,-0.375 0.974,-0.663 1.538,-0.863c0.565,-0.2 1.157,-0.3 1.776,-0.3c0.4,0 0.804,0.034 1.211,0.103c0.407,0.069 0.774,0.175 1.102,0.319c0.327,0.144 0.597,0.319 0.81,0.526c0.212,0.206 0.319,0.447 0.319,0.722c0,0.288 -0.073,0.507 -0.219,0.657c-0.146,0.15 -0.328,0.225 -0.546,0.225c-0.207,0 -0.389,-0.034 -0.547,-0.103c-0.157,-0.069 -0.336,-0.147 -0.537,-0.235c-0.2,-0.087 -0.44,-0.166 -0.719,-0.234c-0.279,-0.069 -0.65,-0.104 -1.111,-0.104c-0.655,0 -1.25,0.232 -1.784,0.695c-0.535,0.463 -0.947,1.076 -1.239,1.839c0,0 3.745,0.053 4.28,0.075c1.337,0.056 1.57,1.714 0.018,1.708Z" style="fill:#fff;fill-rule:nonzero;"/><path d="M108.512,481.679c1.525,-2.691 4.576,-2.691 6.101,-1.346c1.526,1.346 1.526,4.036 0,6.727c-1.068,2.018 -3.813,4.036 -6.101,5.381c-2.288,-1.345 -5.034,-3.363 -6.102,-5.381c-1.525,-2.691 -1.525,-5.381 0,-6.727c1.526,-1.345 4.576,-1.345 6.102,1.346Z" style="fill:#fff;"/><g><path d="M108.794,454.341c5.014,0 9.084,4.99 9.084,4.99c0,0 -4.07,4.99 -9.084,4.99c-5.014,0 -9.084,-4.99 -9.084,-4.99c0,0 4.07,-4.99 9.084,-4.99Z" style="fill:none;stroke:#fff;stroke-width:1.38px;"/><ellipse cx="108.794" cy="459.331" rx="4.842" ry="4.99" style="fill:none;stroke:#fff;stroke-width:1.38px;"/><ellipse cx="108.794" cy="459.331" rx="2.49" ry="2.565" style="fill:#fff;stroke:#fff;stroke-width:0.9px;"/></g><g><path d="M115.757,426.193l-10.026,9.573" style="fill:none;stroke:#fff;stroke-width:2.38px;"/><path d="M102.978,436.664c1.061,0 1.876,0.772 1.884,1.866c0.013,1.907 -1.213,2.787 -2.243,3.174c-0.405,0.153 -3.162,-0.042 -3.162,-0.042c0,0 1.717,-1.288 1.39,-2.386c-0.341,-1.149 1.069,-2.612 2.131,-2.612Z" style="fill:#fff;stroke:#fff;stroke-width:0.89px;"/></g><g><path d="M97.761,400.853l2.371,10.375" style="fill:none;stroke:#fff;stroke-width:1.01px;"/><path d="M115.757,400.853l-2.371,10.375" style="fill:none;stroke:#fff;stroke-width:1.01px;"/><path d="M100.18,411.228l13.206,0" style="fill:none;stroke:#fff;stroke-width:1.01px;"/><path d="M97.761,400.853l17.996,0" style="fill:none;stroke:#fff;stroke-width:1.01px;"/><path d="M102.992,400.853l3.82,-4.67l3.76,4.67" style="fill:none;stroke:#fff;stroke-width:1.01px;"/><path d="M98.957,404.711l15.615,0" style="fill:none;stroke:#fff;stroke-width:1.02px;"/><path d="M99.49,407.535l14.643,0" style="fill:none;stroke:#fff;stroke-width:1.02px;"/><path d="M103.063,400.853l0.017,10.375" style="fill:none;stroke:#fff;stroke-width:1.01px;"/><path d="M106.85,400.853l0.017,10.375" style="fill:none;stroke:#fff;stroke-width:1.01px;"/><path d="M110.555,400.853l0.017,10.375" style="fill:none;stroke:#fff;stroke-width:1.01px;"/></g></g><rect x="31.739" y="322.308" width="338.816" height="13.823" style="fill:#372718;"/><rect x="53.397" y="544.397" width="295.501" height="13.823" style="fill:#372718;"/><rect x="53.911" y="100.426" width="17.522" height="467.738" style="fill:#372718;"/><rect x="331.376" y="100.426" width="17.522" height="467.738" style="fill:#372718;"/></g><g><g><path d="M57.955,0l-40.459,0l-17.496,90.594l0.037,20.893c0,26.575 46.822,25.427 46.822,-1.149l-0.358,-19.744l11.454,-90.594Z" style="fill:#32bda8;"/><path d="M46.501,90.594l-46.501,0l0.037,20.893c0,26.575 46.822,25.427 46.822,-1.149l-0.358,-19.744Z" style="fill-opacity:0.25;"/></g><g><path d="M300.346,0.023l40.459,0l17.496,90.594l-0.036,20.893c0,26.575 -46.823,25.427 -46.823,-1.149l0.358,-19.744l-11.454,-90.594Z" style="fill:#fff;"/><path d="M311.8,90.617l46.501,0l-0.036,20.893c0,26.575 -46.823,25.427 -46.823,-1.149l0.358,-19.744Z" style="fill-opacity:0.25;"/></g><g><path d="M139.354,0l-40.459,0l-8.736,90.594l0.037,20.893c0,26.575 45.362,25.427 45.362,-1.149l-0.358,-19.744l4.154,-90.594Z" style="fill:#32bda8;"/><path d="M135.2,90.594l-45.041,0l0.037,20.893c0,26.575 45.362,25.427 45.362,-1.149l-0.358,-19.744Z" style="fill-opacity:0.25;"/></g><g><path d="M218.947,0.023l40.46,0l8.735,90.594l-0.037,20.893c0,26.575 -45.362,25.427 -45.362,-1.149l0.358,-19.744l-4.154,-90.594Z" style="fill:#fff;"/><path d="M223.101,90.617l45.041,0l-0.037,20.893c0,26.575 -45.362,25.427 -45.362,-1.149l0.358,-19.744Z" style="fill-opacity:0.25;"/></g><g><path d="M178.682,0l40.459,0l5.815,90.594l-0.037,20.893c0,26.575 -45.362,25.427 -45.362,-1.149l0.358,-19.744l-1.233,-90.594Z" style="fill:#32bda8;"/><path d="M179.915,90.594l45.041,0l-0.037,20.893c0,26.575 -45.362,25.427 -45.362,-1.149l0.358,-19.744Z" style="fill-opacity:0.25;"/></g><g><path d="M179.557,0l-40.459,0l-4.355,90.594l0.037,20.893c0,26.575 45.362,25.427 45.362,-1.149l-0.358,-19.744l-0.227,-90.594Z" style="fill:#fff;"/><path d="M179.784,90.594l-45.041,0l0.037,20.893c0,26.575 45.362,25.427 45.362,-1.149l-0.358,-19.744Z" style="fill-opacity:0.25;"/></g><g><path d="M340.798,0.023l40.459,0l23.337,90.594l-0.037,20.893c0,26.575 -46.822,25.427 -46.822,-1.149l0.358,-19.744l-17.295,-90.594Z" style="fill:#32bda8;"/><path d="M358.093,90.617l46.501,0l-0.037,20.893c0,26.575 -46.822,25.427 -46.822,-1.149l0.358,-19.744Z" style="fill-opacity:0.25;"/></g><g><path d="M98.686,0l-40.459,0l-14.576,90.594l0.036,20.893c0,26.575 46.823,25.427 46.823,-1.149l-0.358,-19.744l8.534,-90.594Z" style="fill:#fff;"/><path d="M90.152,90.594l-46.501,0l0.036,20.893c0,26.575 46.823,25.427 46.823,-1.149l-0.358,-19.744Z" style="fill-opacity:0.25;"/></g><g><path d="M259.615,0.023l40.459,0l14.576,90.594l-0.036,20.893c0,26.575 -46.823,25.427 -46.823,-1.149l0.358,-19.744l-8.534,-90.594Z" style="fill:#32bda8;"/><path d="M268.149,90.617l46.501,0l-0.036,20.893c0,26.575 -46.823,25.427 -46.823,-1.149l0.358,-19.744Z" style="fill-opacity:0.25;"/></g></g></g><defs><linearGradient id="_Linear1" x1="0" y1="0" x2="1" y2="0" gradientUnits="userSpaceOnUse" gradientTransform="matrix(0.366257,210.123,-210.123,0.366257,200.781,334.274)"><stop offset="0" style="stop-color:#503c2a;stop-opacity:1"/><stop offset="1" style="stop-color:#45372b;stop-opacity:1"/></linearGradient></defs></svg>