<svg xmlns="http://www.w3.org/2000/svg" width="28.846" height="23.591" viewBox="0 0 28.846 23.591">
  <g id="icon-category" transform="translate(0.902 0.75)">
    <path id="Pfad_285" data-name="Pfad 285" d="M.75-15.878,4.313-.75" transform="translate(-0.75 22.689)" fill="none" stroke-linecap="round" stroke-linejoin="round" stroke-width="1.5"/>
    <path id="Pfad_286" data-name="Pfad 286" d="M27.792-15.878,24.229-.75" transform="translate(-0.75 22.689)" fill="none" stroke-linecap="round" stroke-linejoin="round" stroke-width="1.5"/>
    <path id="Pfad_287" data-name="Pfad 287" d="M4.384-.75H24.229" transform="translate(-0.75 22.689)" fill="none" stroke-linecap="round" stroke-linejoin="round" stroke-width="1.5"/>
    <path id="Pfad_288" data-name="Pfad 288" d="M.75-15.878H27.792" transform="translate(-0.75 22.689)" fill="none" stroke-linecap="round" stroke-linejoin="round" stroke-width="1.5"/>
    <path id="Pfad_289" data-name="Pfad 289" d="M8.611-15.878l5.739-6.811L20-15.878" transform="translate(-0.75 22.689)" fill="none" stroke-linecap="round" stroke-linejoin="round" stroke-width="1.5"/>
    <path id="Pfad_290" data-name="Pfad 290" d="M2.547-10.252H26.01" transform="translate(-0.75 22.689)" fill="none" stroke-linecap="round" stroke-linejoin="round" stroke-width="1.5"/>
    <path id="Pfad_291" data-name="Pfad 291" d="M3.347-6.135h22" transform="translate(-0.75 22.689)" fill="none" stroke-linecap="round" stroke-linejoin="round" stroke-width="1.5"/>
    <path id="Pfad_292" data-name="Pfad 292" d="M8.717-15.878,8.742-.75" transform="translate(-0.75 22.689)" fill="none" stroke-linecap="round" stroke-linejoin="round" stroke-width="1.5"/>
    <path id="Pfad_293" data-name="Pfad 293" d="M14.408-15.878,14.432-.75" transform="translate(-0.75 22.689)" fill="none" stroke-linecap="round" stroke-linejoin="round" stroke-width="1.5"/>
    <path id="Pfad_294" data-name="Pfad 294" d="M19.975-15.878,20-.75" transform="translate(-0.75 22.689)" fill="none" stroke-linecap="round" stroke-linejoin="round" stroke-width="1.5"/>
  </g>
</svg>
