<svg xmlns="http://www.w3.org/2000/svg" width="28.718" height="16.242" viewBox="0 0 28.718 16.242">
  <g id="icon-communication" transform="translate(1 1)">
    <path id="Pfad_297" data-name="Pfad 297" d="M14.359-15.242c7.373,0,13.359,7.121,13.359,7.121S21.732-1,14.359-1,1-8.121,1-8.121,6.986-15.242,14.359-15.242Z" transform="translate(-1 15.242)" fill="none" stroke="#fff" stroke-linecap="round" stroke-linejoin="round" stroke-width="2"/>
    <path id="Pfad_298" data-name="Pfad 298" d="M14.359-15.242A7.124,7.124,0,0,1,21.48-8.121,7.124,7.124,0,0,1,14.359-1,7.124,7.124,0,0,1,7.238-8.121,7.124,7.124,0,0,1,14.359-15.242Z" transform="translate(-1 15.242)" fill="none" stroke="#fff" stroke-linecap="round" stroke-linejoin="round" stroke-width="2"/>
    <path id="Pfad_299" data-name="Pfad 299" d="M14.359-11.782A3.663,3.663,0,0,1,18.02-8.121,3.663,3.663,0,0,1,14.359-4.46,3.663,3.663,0,0,1,10.7-8.121,3.663,3.663,0,0,1,14.359-11.782Z" transform="translate(-1 15.242)" fill="#fff" fill-rule="evenodd"/>
  </g>
</svg>
