<svg id="icon-price" xmlns="http://www.w3.org/2000/svg" width="16.917" height="19.268" viewBox="0 0 16.917 19.268">
  <path id="Pfad_302" data-name="Pfad 302" d="M12.554-19.4q-1.312.081-3.025.107t-3.881.027v1.048a3.475,3.475,0,0,0,.027.43H7.682q1.258,0,2.329.027t2.248.081a5.907,5.907,0,0,1,.99.148,1.359,1.359,0,0,1,.535.255.647.647,0,0,1,.228.376,2.644,2.644,0,0,1,.04.484,1.073,1.073,0,0,1-.335.806,2.355,2.355,0,0,1-1.432.376q-1.178.054-2.663.094t-3.359.04a5.337,5.337,0,0,0,2.008,2.593,4.906,4.906,0,0,0,2.677.82,6.568,6.568,0,0,0,1.927-.242,7.54,7.54,0,0,0,1.325-.537q.549-.3.95-.537a1.505,1.505,0,0,1,.776-.242,1,1,0,0,1,.723.255,1.218,1.218,0,0,1,.268.9A1.811,1.811,0,0,1,16.5-11a3.816,3.816,0,0,1-1.2.994,7.838,7.838,0,0,1-1.887.726A9.9,9.9,0,0,1,10.948-9a8.042,8.042,0,0,1-2.409-.376,7.8,7.8,0,0,1-2.262-1.142A8.264,8.264,0,0,1,4.4-12.426,8.932,8.932,0,0,1,3.132-15.1q-.856,0-1.445-.027a3.764,3.764,0,0,1-.964-.148.983.983,0,0,1-.549-.39A1.379,1.379,0,0,1,0-16.417a1.4,1.4,0,0,1,.094-.511.939.939,0,0,1,.375-.43,2.16,2.16,0,0,1,.816-.282A8.538,8.538,0,0,1,2.7-17.734v-1.088a3.585,3.585,0,0,1,.027-.443,6.241,6.241,0,0,1-1.9-.242q-.562-.215-.562-1.075a1.772,1.772,0,0,1,.053-.43.793.793,0,0,1,.241-.39,1.371,1.371,0,0,1,.522-.282,4.338,4.338,0,0,1,.87-.161l1.2-.081a9.7,9.7,0,0,1,1.2-2.687A8.371,8.371,0,0,1,6.156-26.6a7.616,7.616,0,0,1,2.262-1.236,7.937,7.937,0,0,1,2.61-.43,10.934,10.934,0,0,1,1.78.148,7.008,7.008,0,0,1,1.619.457,4,4,0,0,1,1.191.752,1.382,1.382,0,0,1,.468,1.035,1.277,1.277,0,0,1-.321.941,1.087,1.087,0,0,1-.8.322,2.04,2.04,0,0,1-.8-.148l-.79-.336a6.725,6.725,0,0,0-1.057-.336,7.247,7.247,0,0,0-1.633-.148,3.967,3.967,0,0,0-2.623.994,6.442,6.442,0,0,0-1.82,2.634H7.95q1.258,0,2.329.027t2.248.081a5.916,5.916,0,0,1,.99.148,1.359,1.359,0,0,1,.535.255.647.647,0,0,1,.228.376,2.65,2.65,0,0,1,.04.484,1.073,1.073,0,0,1-.335.806A2.355,2.355,0,0,1,12.554-19.4Z" transform="translate(0 28.268)" fill="#fff"/>
</svg>
