<svg width="100%" height="100%" viewBox="0 0 817 1167" version="1.1" xmlns="http://www.w3.org/2000/svg" xmlns:xlink="http://www.w3.org/1999/xlink"><g id="instructor"><ellipse cx="278.951" cy="1098.74" rx="278.951" ry="67.47" style="fill:url(#_Radial1);"/><path d="M363.05,700.491l-162.518,0l12.083,355.908c15.94,12.001 33.634,18.292 54.699,13.608l-3.685,-334.247l41.585,0.187l-3.16,333.876c15.37,4.885 33.228,0.216 53.246,-12.741l7.75,-356.591Z" style="fill:#635f6e;"/><g><path d="M170.179,643.407l-45.16,1.607c15.783,41.371 44.909,80.011 79.28,113.64l18.265,-53.086c-28.788,-19.951 -46.981,-40.622 -52.385,-62.161Z" style="fill:#ffcd90;"/><path d="M677.336,355.1l54.511,-24.265l6.325,13.36l78.45,3.517l-108.989,30.868l-133.343,53.677l-13.151,-43.756l116.197,-33.401Z" style="fill:#ffcd90;"/></g><g><path d="M266.732,1047.11c-10.15,15.457 -25.841,23.188 -57.365,8.839c0,0 -56.094,27.905 -56.309,35.815c-0.223,8.187 14.364,8.652 33.498,7.708l85.177,-0.667l-5.001,-51.695Z" style="fill:#f4ebe3;"/><path d="M267.839,1045.54c-10.15,15.457 -26.948,24.757 -58.472,10.408l-33.19,17.518l10.572,23.074l84.984,-3.713l-3.894,-47.287Z" style="fill:#46253d;"/><path d="M186.623,1068.38l7.462,7.825" style="fill:none;stroke:#f4ebe3;stroke-width:2px;"/><path d="M197.37,1062.42l7.462,7.825" style="fill:none;stroke:#f4ebe3;stroke-width:2px;"/></g><g><path d="M301.335,1046.72c10.151,15.457 25.841,23.188 57.365,8.839c0,0 56.094,27.905 56.309,35.815c0.223,8.187 -14.363,8.653 -33.497,7.708l-85.178,-0.666l5.001,-51.696Z" style="fill:#f4ebe3;"/><path d="M300.228,1045.15c10.15,15.457 26.948,24.756 58.472,10.407l33.19,17.518l-10.572,23.074l-84.984,-3.712l3.894,-47.287Z" style="fill:#46253d;"/><path d="M381.444,1068l-7.462,7.824" style="fill:none;stroke:#f4ebe3;stroke-width:2px;"/><path d="M370.697,1062.04l-7.462,7.825" style="fill:none;stroke:#f4ebe3;stroke-width:2px;"/></g><g><rect x="252.196" y="351.074" width="67.814" height="70.198" style="fill:#ffcd90;"/><path d="M424.197,211.56c15.887,4.31 23.625,26.834 17.269,50.267c-6.357,23.434 -24.416,38.96 -40.303,34.65c-15.887,-4.309 -23.625,-26.833 -17.269,-50.266c6.357,-23.434 24.415,-38.96 40.303,-34.651Z" style="fill:#ffcd90;"/><path d="M146.809,211.563c15.885,-4.317 33.951,11.2 40.319,34.631c6.368,23.43 -1.359,45.958 -17.244,50.275c-15.885,4.317 -33.952,-11.2 -40.319,-34.631c-6.368,-23.43 1.359,-45.958 17.244,-50.275Z" style="fill:#ffcd90;"/><path d="M276.003,28.555c124.113,0.098 136.677,84.374 136.677,153.894c0,19.097 -1.498,54.803 -7.885,85.862c-6.879,33.452 -25.64,63.82 -36.787,75.796c-16.179,17.384 -69.638,21.307 -92.005,21.307c-52.082,0 -123.478,-43.85 -123.478,-113.37c0,-69.52 -12.075,-223.596 123.478,-223.489Z" style="fill:#ffcd90;"/><ellipse cx="219.833" cy="229.369" rx="15.905" ry="18.527" style="fill:#401600;"/><ellipse cx="350.438" cy="228.836" rx="15.905" ry="18.527" style="fill:#401600;"/><path d="M193.988,185.44c15.412,-9.419 29.25,-9.443 41.75,-1.495" style="fill:none;stroke:#401600;stroke-width:4px;"/><path d="M329.952,187.211c15.412,-9.419 29.249,-9.443 41.75,-1.496" style="fill:none;stroke:#401600;stroke-width:4px;"/><path d="M276.003,228.836l0,58.2" style="fill:none;stroke:#e99763;stroke-width:2px;"/><path d="M329.952,306.977l-88.084,0c0,0 11.58,29.621 45.578,29.621c33.999,0 42.506,-29.621 42.506,-29.621Z" style="fill:#fcfcfc;stroke:#e99763;stroke-width:2px;"/><path d="M276.003,10.537c37.974,-0.724 58.152,2.3 82.579,9.541c8.877,2.632 34.039,-8.026 39.978,-17.548c7.108,-11.396 -7.664,19.291 -8.455,21.255c-6.046,15.015 31.032,2.664 39.235,-3.531c8.835,-6.673 -3.008,28.351 -9.191,41.043c-1.303,2.674 15.4,1.552 15.192,4.582c-0.689,10.058 -11.633,19.966 -13.862,30.65c-6.759,32.396 -8.799,66.109 -8.799,85.92c0,19.097 2.868,53.707 -2.18,53.448c-19.456,-0.995 4.404,-120.019 -11.144,-114.925c-8.784,2.879 -72.696,19.183 -99.555,17.909c-31.733,-1.505 -94.649,-40.434 -124.253,0.338c-26.838,36.962 0.67,133.571 -9.735,102.194c-2.032,-6.129 -11.205,-0.543 -13.095,-8.576c-16.317,-69.338 -17.171,-219.62 123.285,-222.3Z" style="fill:#5b2804;"/></g><g><path d="M316.63,392.3l-32.427,20.412l-34.909,-19.866l-17.49,14.656l-83.347,36.288l-29.658,165.292l-6.66,4.3l0.293,32.651l66,-3.108l-0.659,-28.578l-5.646,-5.978l13.804,-94.838l8.057,186.96l177.714,-0.43l13.444,-209.914l163.86,-47.464l1.477,8.751l29.981,-5.039l-10.73,-67.815l-29.221,5.199l-9.424,12.161l-141.511,17.404l-55.045,-7.462l-17.903,-13.582Z" style="fill:#91d3f3;"/><path d="M284.601,700.491l-0.398,-287.779" style="fill:none;stroke:#75bddd;stroke-width:2px;"/><path d="M542.74,441.831l-6.893,-47.339" style="fill:none;stroke:#75bddd;stroke-width:2px;"/><path d="M168.495,611.938l-47.922,-0.556" style="fill:none;stroke:#75bddd;stroke-width:2px;"/><path d="M235.738,407.369l17.527,34.134l31.336,-24.743l32.972,25.326l16.96,-38.073" style="fill:none;stroke:#75bddd;stroke-width:2px;"/></g></g><defs><radialGradient id="_Radial1" cx="0" cy="0" r="1" gradientUnits="userSpaceOnUse" gradientTransform="matrix(278.951,0,0,67.4704,278.951,1098.74)"><stop offset="0" style="stop-color:#000;stop-opacity:0.3"/><stop offset="0.65" style="stop-color:#000;stop-opacity:0.11"/><stop offset="1" style="stop-color:#000;stop-opacity:0"/></radialGradient></defs></svg>