<?xml version="1.0" encoding="UTF-8" standalone="no"?><!DOCTYPE svg PUBLIC "-//W3C//DTD SVG 1.1//EN" "http://www.w3.org/Graphics/SVG/1.1/DTD/svg11.dtd"><svg width="100%" height="100%" viewBox="0 0 800 1200" version="1.1" xmlns="http://www.w3.org/2000/svg" xmlns:xlink="http://www.w3.org/1999/xlink" xml:space="preserve" xmlns:serif="http://www.serif.com/" style="fill-rule:evenodd;clip-rule:evenodd;stroke-linecap:round;stroke-linejoin:round;stroke-miterlimit:1.5;"><g id="avatar_04-pose_00"><g><path d="M348.508,147.606c58.397,-25.092 100.457,-10.2 100.457,-10.2l-2.743,-18.598l14.394,11.685l13.084,-8.471l-1.465,9.876l13.837,-1.505l-15.271,13.488c72.115,42.065 70.966,134.007 38.065,198.617c-0.786,1.545 -3.253,1.034 -5.04,0.863l-213.615,1.744c-5.925,-24.148 -15.888,-79.551 -4.202,-107.075c-11.44,16.381 -10.676,25.54 -13.562,30.785c0,0 -13.368,-82.783 76.061,-121.209Z" style="fill:#391100;"/><path d="M427.183,419.914l-63.482,0l0,24.327l31.133,19.167l32.349,-19.167l0,-24.327Z" style="fill:#ffbd82;"/><path d="M311.729,241.848c-3.708,-8.859 -0.655,-25.216 8.991,-35.129c-11.919,5.194 -27.77,58.648 -27.77,58.648c-1.569,25.088 -2.616,50.968 5.33,78.757c0,0 -8.02,0.807 -8.062,0.755c12.347,47.818 39.941,86.963 102.967,87.29c71.32,0.37 102.147,-44.77 108.751,-94.412c0.297,-2.232 -10.35,0.069 -10.35,0.069c0,0 13.185,-30.621 15.385,-44.68c1.567,-78.728 -44.629,-51.661 -56.799,-106.797c-26.203,22.676 -45.82,-0.764 -79.858,26.113l4.342,-17.612c-17.702,8.547 -38.408,18.801 -43.041,32.002c-3.638,-12.165 6.519,-21.871 15.158,-29.188c-18.488,12.507 -28.295,26.173 -35.044,44.184Z" style="fill:#ffbd82;"/><g id="eye-right"><ellipse id="eye-right1" serif:id="eye-right" cx="335.887" cy="306.78" rx="13.035" ry="17.197" style="fill:#391100;"/></g><g id="eye-left"><ellipse id="eye-left1" serif:id="eye-left" cx="455.274" cy="306.78" rx="13.035" ry="17.197" style="fill:#391100;"/></g><path d="M389.936,298.738l-8.834,32.611l8.252,12.429" style="fill:none;stroke:#000;stroke-opacity:0.24;stroke-width:7px;"/><path d="M374.494,381.157c12.772,7.082 25.183,7.424 37.191,0.23" style="fill:none;stroke:#000;stroke-opacity:0.24;stroke-width:5.61px;"/><path d="M490.894,376.287c-18.598,38.043 -65.169,38.881 -73.816,35.715c-6.369,-2.332 -11.744,-5.876 -15.712,-11.139c-1.486,-1.971 -6.73,-2.1 -8.459,-0.028c-4.291,5.143 -9.919,9.31 -18.121,11.597c-8.108,2.261 -40.779,12.112 -76.339,-39.9c20.736,55.169 61.332,58.854 95.524,58.892c35.881,0.041 73.77,-7.549 96.923,-55.137Z" style="fill:#391100;"/><path d="M318.159,274.608c10.546,-7.695 22.816,-10.824 39.346,-2.683" style="fill:none;stroke:#391100;stroke-width:9px;"/><path d="M475.324,276.41c-10.545,-7.695 -22.816,-10.824 -39.345,-2.682" style="fill:none;stroke:#391100;stroke-width:9px;"/></g><g><path d="M472.85,704.614l-156.568,0.271l17.338,368.276l46.374,0l-3.841,-318.034l35.5,0.087l-2.981,317.947l49.383,0.501l14.795,-369.048Z" style="fill:#c68736;"/><path d="M376.292,1069.67l-44.414,-19.238l-37.041,23.312l-0.056,5.034l81.947,0l-0.436,-9.108Z" style="fill:#391100;"/><path d="M413.843,1069.67l44.414,-19.238l37.042,23.312l0.055,5.034l-81.946,0l0.435,-9.108Z" style="fill:#391100;"/></g><g><path d="M450.164,705.551l-1.568,-246.548l-6.393,-3.277l-13.972,-4.109l-0.347,-7.255l-31.971,15.479l-35.369,-17.488l0.345,13.373l-6.93,0.715l-11.042,3.046l-5.932,245.727l113.179,0.337Z" style="fill:#ecedf7;"/><path d="M352.956,457.502l9.54,31.687l33.726,-25.526l28.818,25.373l12.124,-32.726" style="fill:none;stroke:#616161;stroke-width:4.5px;"/><path d="M481.396,473.308l-3.452,255.3l-48.323,-10.554l11.92,-262.415l39.855,17.669Z" style="fill:#342c25;"/><path d="M366.148,715.638l-11.37,-259.912l-43.379,12.82l-1.819,274.699l56.568,-27.607Z" style="fill:#342c25;"/><path d="M361.773,616.729l-6.995,-161.003l-23.935,7.37l-14.701,34.022l17.253,23.123l-16.399,11.224l44.777,85.264Z" style="fill:#68584a;"/><path d="M434.448,612.667l7.066,-156.976l17.483,7.681l20.961,34.038l-17.788,22.713l16.132,11.603l-43.854,80.941Z" style="fill:#68584a;"/></g><g><path id="arm-right" d="M322.265,713.384c-12.813,-20.64 -31.637,-64.394 -32.863,-73.389c-1.427,-10.477 11.159,-54.532 24.017,-81.542l-1.375,-90.133c-16.594,7.193 -28.278,15.657 -35.412,22.479c-8.489,8.116 -33.947,140.468 -33.26,156.79c0.415,9.869 22.1,52.29 48.382,100.915l30.511,-35.12Z" style="fill:#342c25;"/><path id="hand-right" d="M323.622,712.66c7.641,1.007 14.234,5.108 19.59,12.859c-4.127,15.913 -9.494,31.669 -20.485,46.712c-11.057,-7.223 -20.139,-16.883 -26.942,-29.352l27.837,-30.219Z" style="fill:#ffbd82;"/></g><path id="bag" d="M353.829,454.655c-8.706,-1.485 -13.866,0.017 -19.323,6.208c24.863,116.556 74.406,203.325 133.43,274.748l-0.549,104.929c16.066,8.063 32.233,6.805 48.454,0.57l1.124,-135.532l-38.941,0.248c0,0 -0.788,6.68 -0.832,6.623c-58.817,-76.257 -108.139,-163.248 -123.363,-257.794Z" style="fill:#4f3b32;"/><g><path id="hand-left" d="M539.162,752.338c2.962,5.993 5.455,20.789 2.05,31.702c-5.67,18.175 -14.235,33.296 -24.313,46.658c-5.137,6.811 -15.643,0.427 -14.277,-9.102l5.735,-43.522c-1.646,-2.38 -3.284,-2.272 -4.916,-0.581l-4.439,24.791c-1.193,7.066 -11.617,6.471 -11.909,-1.205l-2.271,-37.931c1.47,-5.47 4.902,-9.55 10.647,-11.992l43.693,1.182Z" style="fill:#ffbd82;"/><path id="arm-left" d="M495.933,751.289c0,0 -2.78,-76.351 -5.829,-108.138c-2.657,-27.713 -12.462,-82.586 -12.462,-82.586l1.187,-88.396c0,0 31.291,7.702 35.6,20.742c9.571,28.971 17.422,109.654 21.828,153.081c3.62,35.677 4.609,107.482 4.609,107.482l-44.933,-2.185Z" style="fill:#342c25;"/></g><path d="M435.61,371.244c-0.407,-3.034 -7.608,-9.274 -8.674,-8.766c0,0 4.664,9.35 2.251,9.16c-5.841,-0.461 -26.027,-11.922 -37.299,-11.922c-10.944,0 -28.509,11.19 -33.901,11.566c-2.388,0.167 1.548,-9.311 1.548,-9.311c-1.263,-0.095 -7.455,6.625 -7.776,9.602c-0.336,3.109 0.542,7.935 2.753,8.025c6.687,0.269 24.72,-6.305 37.367,-6.406c12.704,-0.101 31.672,4.13 38.856,5.798c3.083,0.716 5.373,-4.04 4.875,-7.746Z" style="fill:#391100;"/></g></svg>