<?xml version="1.0" encoding="UTF-8" standalone="no"?><!DOCTYPE svg PUBLIC "-//W3C//DTD SVG 1.1//EN" "http://www.w3.org/Graphics/SVG/1.1/DTD/svg11.dtd"><svg width="100%" height="100%" viewBox="0 0 800 1200" version="1.1" xmlns="http://www.w3.org/2000/svg" xmlns:xlink="http://www.w3.org/1999/xlink" xml:space="preserve" xmlns:serif="http://www.serif.com/" style="fill-rule:evenodd;clip-rule:evenodd;stroke-linecap:round;stroke-linejoin:round;stroke-miterlimit:1.5;"><g id="avatar_00-pose_01"><g id="leg-right"><path id="rute" d="M392.789,713.391l-55.203,-0.273l-30.734,358.688l38.389,1.391l47.548,-359.806Z" style="fill:#ffd3a6;"/><path id="latsch" d="M349.82,1073.2c-0.331,-2.339 -3.674,-6.061 -3.674,-6.061c-19.55,4.313 -33.697,2.761 -38.223,-9.239c0,0 -38.323,22.223 -46.063,27.933c-1.701,1.254 -0.38,6.327 -0.38,6.327l88.34,0.881c0,0 0.613,-15.524 0,-19.841Z" style="fill:#57340f;"/></g><g id="leg-right1" serif:id="leg-right"><path id="rute1" serif:id="rute" d="M414.69,713.391l55.202,-0.273l-12.472,358.688l-38.389,1.391l-4.341,-359.806Z" style="fill:#ffd3a6;"/><path id="latsch1" serif:id="latsch" d="M414.451,1073.2c0.525,-2.91 4.914,-7.385 4.914,-7.385c16.121,6.078 27.578,2.098 38.928,-7.915c0,0 36.702,22.223 44.119,27.933c1.674,1.289 0.38,6.327 0.38,6.327l-88.341,0.881c0,0 -0.819,-15.304 0,-19.841Z" style="fill:#57340f;"/></g><g id="head"><path id="hair" d="M260.719,237.413c18.178,-57.058 66.261,-123.178 138.732,-124.475c68.543,-1.227 103.175,50.232 126.381,98.291c27.516,56.986 54.502,154.036 15.792,211.436c-11.203,16.611 -96.097,71.134 -140.343,71.51c-46.373,0.394 -128.175,-28.629 -151.602,-71.422c-23.427,-42.794 -7.212,-128.048 11.04,-185.34Z" style="fill:#cb4f00;"/><rect id="neck" x="379.374" y="408.12" width="43.815" height="91.795" style="fill:#ffd3a6;"/><path id="skull" d="M300.422,261.155c-4.576,-20.121 40.072,-25.224 84.402,-27.778c37.868,-2.181 75.702,-16.621 86.199,-29.157c-2.423,23.327 33.759,75.498 43.751,80.749c-5.434,89.161 -59.914,131.158 -116.691,130.842c-53.453,-0.297 -105.795,-33.262 -113.956,-128.299c18.711,8.137 18.584,-16.295 16.295,-26.357Z" style="fill:#ffd3a6;"/><path id="ear-left" d="M521.794,280.809c8.342,1.241 13.594,12.48 11.719,25.083c-1.874,12.603 -10.169,21.828 -18.512,20.587c-8.343,-1.241 -13.594,-12.481 -11.72,-25.084c1.875,-12.603 10.17,-21.827 18.513,-20.586Z" style="fill:#ffd3a5;"/><path id="ear-right" d="M278.664,286.995c-8.343,1.241 -13.594,12.481 -11.72,25.083c1.875,12.603 10.17,21.828 18.513,20.587c8.343,-1.241 13.594,-12.48 11.72,-25.083c-1.875,-12.603 -10.17,-21.828 -18.513,-20.587Z" style="fill:#ffd3a5;"/><path id="eye-brow-right" d="M319.443,260.477c13.367,-6.869 26.116,-5.891 38.443,0.461" style="fill:#ff6300;stroke:#cb4f00;stroke-width:9.5px;"/><path id="eye-brow-left" d="M442.94,260.695c13.367,-6.87 26.117,-5.891 38.444,0.46" style="fill:#ff6300;stroke:#cb4f00;stroke-width:9.5px;"/><path id="nose" d="M393.05,297.893l-9.605,34.5l10.8,6.422" style="fill:none;stroke:#e78b65;stroke-width:4.5px;"/><path id="mouth" d="M428.524,361.453c-19.568,5.032 -39.733,5.91 -61.031,0c0,0 7.76,20.93 29.59,21.046c21.831,0.116 31.441,-21.046 31.441,-21.046Z" style="fill:#fff;stroke:#e78b65;stroke-width:3.5px;"/><g id="eye-right"><ellipse id="eye-right1" serif:id="eye-right" cx="339.07" cy="295.675" rx="13.035" ry="17.197" style="fill:#3f1500;"/><path d="M341.203,282.953c3.628,-0.53 7.184,3.211 7.935,8.35c0.752,5.138 -1.584,9.741 -5.212,10.272c-3.628,0.53 -7.183,-3.211 -7.935,-8.35c-0.751,-5.138 1.584,-9.741 5.212,-10.272Z" style="fill:#fff;fill-opacity:0.71;"/><path d="M335.608,301.664c1.66,-0.243 3.198,0.86 3.432,2.462c0.235,1.601 -0.923,3.099 -2.584,3.342c-1.66,0.242 -3.198,-0.861 -3.432,-2.463c-0.234,-1.601 0.924,-3.099 2.584,-3.341Z" style="fill:#fff;fill-opacity:0.71;"/></g><g id="eye-left"><ellipse id="eye-left1" serif:id="eye-left" cx="461.085" cy="297.893" rx="13.035" ry="17.197" style="fill:#3f1500;"/><path d="M457.622,301.664c1.66,-0.243 3.198,0.86 3.432,2.462c0.235,1.601 -0.923,3.099 -2.583,3.342c-1.661,0.242 -3.199,-0.861 -3.433,-2.463c-0.234,-1.601 0.924,-3.099 2.584,-3.341Z" style="fill:#fff;fill-opacity:0.71;"/><path d="M462.947,282.953c3.629,-0.53 7.184,3.211 7.935,8.35c0.752,5.138 -1.584,9.741 -5.212,10.272c-3.628,0.53 -7.183,-3.211 -7.935,-8.35c-0.751,-5.138 1.584,-9.741 5.212,-10.272Z" style="fill:#fff;fill-opacity:0.71;"/></g></g><path d="M471.023,665.271l-132.984,3.106c-2.17,22.361 -6.49,44.381 -8.515,67.652c-2.644,30.368 -6.729,61.223 -14.063,91.539c55.469,9.221 111.463,11.774 164.709,-2.218c-2.912,-25.716 -2.988,-52.136 -3.851,-78.305c-0.923,-28.021 0.804,-55.644 -5.296,-81.774Z" style="fill:#3f2d1b;"/><g id="arm-left"><path d="M447.357,497.047l-2.646,-48.72l43.214,47.972c0,0 3.648,92.945 4.387,116.898l-30.568,0.737c-0.35,-34.764 0.869,-74.942 -14.387,-116.887Z" style="fill:#ffd3a6;"/><path d="M447.357,497.047l-2.646,-50.174c0,0 12.695,5.949 26.775,18.797c16.83,15.358 16.439,30.629 16.439,30.629l-34.269,13.953l-6.299,-13.205Z" style="fill:#6c8ed1;"/><ellipse cx="395.955" cy="703.437" rx="19.033" ry="19.493" style="fill:#ffd3a6;"/></g><g id="arm-left1" serif:id="arm-left"><path d="M346.428,501.047l2.646,-48.72l-43.214,47.972l-4.559,116.912l31.695,0.757c0,0 6.195,-97.024 13.432,-116.921Z" style="fill:#ffd3a6;"/><path d="M346.428,501.047l2.646,-50.174c0,0 -12.695,5.949 -26.775,18.797c-16.83,15.358 -16.439,30.629 -16.439,30.629l34.269,13.953l6.299,-13.205Z" style="fill:#6c8ed1;"/></g><g id="dress"><path d="M423.189,431.373l-21.908,57.187l-21.907,-53.686c-3.16,4.504 -10.241,9.897 -15.038,11.194c-7.353,1.988 -14.277,5.002 -20.883,8.782l-2.009,56.48c-6.249,19.934 -3.888,36.637 9.937,49.042c2.052,39.493 -8.927,75.869 -17.216,111.405c43.729,3.629 91.911,1.699 136.858,-5.574c-13.838,-32.518 -22.844,-66.289 -24.864,-101.868c15.026,-15.931 19.943,-35.64 13.051,-59.763l-5.143,-51.231c-5.286,-3.784 -10.444,-7.103 -15.864,-9.26c-4.858,-1.933 -12.286,-7.931 -15.014,-12.708Z" style="fill:#6c8ed1;"/><path d="M364.299,447.562l-0.928,33.386l26.156,-17.099l11.754,27.229l10.639,-26.047l29.87,12.797l-3.322,-32.074" style="fill:none;stroke:#000;stroke-opacity:0.23;stroke-width:3px;"/></g><path d="M412.434,708.658c-30.011,-22.659 -61.549,-63.994 -79.599,-91.496l-31.52,-0.205c0.442,19.207 47.365,73.392 79.424,90.945l31.695,0.756Z" style="fill:#ffd3a6;"/><path d="M384.36,706.832c30.011,-22.66 59.695,-66.002 77.745,-93.504l30.024,-0.082c0.221,7.403 -44.016,75.276 -76.074,92.83l-31.695,0.756Z" style="fill:#ffd3a6;"/></g></svg>