<?xml version="1.0" encoding="UTF-8" standalone="no"?><!DOCTYPE svg PUBLIC "-//W3C//DTD SVG 1.1//EN" "http://www.w3.org/Graphics/SVG/1.1/DTD/svg11.dtd"><svg width="100%" height="100%" viewBox="0 0 800 1200" version="1.1" xmlns="http://www.w3.org/2000/svg" xmlns:xlink="http://www.w3.org/1999/xlink" xml:space="preserve" xmlns:serif="http://www.serif.com/" style="fill-rule:evenodd;clip-rule:evenodd;stroke-linecap:round;stroke-linejoin:round;stroke-miterlimit:1.5;"><g id="avatar_02-pose_00"><g id="head"><path d="M400,115.309c123.908,-1.881 152.373,116.973 153.278,185.706c1.062,80.6 -75.459,134.596 -153.085,134.596c-77.626,0 -151.795,-53.328 -153.297,-133.92c-1.043,-55.946 32.478,-184.55 153.104,-186.382Z" style="fill:#391100;"/><path d="M286.068,254.567c75.655,10.074 152.023,7.131 228.968,-6.336c-0.867,48.716 -7.761,195.057 -115.036,194.68c-104.693,-0.369 -113.17,-153.014 -113.932,-188.344Z" style="fill:#ffcf87;"/><path d="M395.778,322.963l-11.115,31.588l9.921,8.232" style="fill:none;stroke:#f0a04f;stroke-width:9px;"/><path d="M366.431,389.043c20.782,13.794 41.959,14.846 63.614,0.518" style="fill:none;stroke:#f0a04f;stroke-width:9px;"/><path d="M365.442,325.459c-19.032,-6.983 -38.008,-9.799 -57.521,-12.468l0.074,-4.632c27.996,-10.291 48.414,0.292 57.447,17.1Z" style="fill:#250c00;"/><rect x="378.996" y="438.502" width="45.687" height="31.87" style="fill:#ffcf87;"/></g><path id="arm-right" serif:id="arm right" d="M328.593,530.679l-18.818,-28.006c-26.383,22.914 -43.23,49.53 -50.085,80.024c8.684,45.117 31.576,76.58 57.594,100.977c0,0 9.156,-29.448 9.117,-29.513c-11.237,-18.83 -26.471,-39.07 -34.854,-71.464c8.868,-19.469 21.937,-36.314 37.046,-52.018Z" style="fill:#ffcf87;"/><path id="arm-left" serif:id="arm left" d="M474.52,530.679l18.818,-28.006c26.383,22.914 43.231,49.53 50.085,80.024c-8.684,45.117 -31.576,76.58 -57.594,100.977c0,0 -9.156,-29.448 -9.117,-29.513c11.237,-18.83 26.471,-39.07 34.854,-71.464c-8.868,-19.469 -21.937,-36.314 -37.046,-52.018Z" style="fill:#ffcf87;"/><g id="body"><path d="M403.162,462.339c17.522,0 27.001,0.564 26.883,3.475c-0.288,7.102 -9.361,18.434 -26.883,18.434c-17.523,0 -29.367,-11.458 -29.721,-18.556c-0.111,-2.23 12.198,-3.353 29.721,-3.353Z" style="fill:#ffcf87;"/><path id="body1" serif:id="body" d="M401.84,483.375c-20.82,0.048 -28.429,-17.935 -28.429,-17.935c-21.248,-0.254 -43.527,18.142 -65.786,36.192l23.989,35.173l13.795,-6.472c-7.569,23.997 0.291,32.494 12.606,36.515c0.35,26.198 -1.613,52.101 -12.861,76.819c-9.107,20.013 -17.865,37.524 -19.687,56.29l151.953,-0.12c-1.771,-18.728 -8.466,-36.399 -15.755,-56.184c-8.918,-24.209 -14.365,-49.832 -12.443,-78.457c14.299,-3.544 16.98,-16.493 13.549,-34.39l15.098,6.369l20.829,-34.904c-20.974,-16.357 -40.435,-35.971 -68.653,-36.741c0,0 -7.385,17.797 -28.205,17.845Z" style="fill:#7e0000;"/></g><path id="hand-right" serif:id="hand right" d="M326.401,654.161c-5.371,3.422 -17.319,23.596 -9.117,29.513c0,0 9.209,5.013 13.606,6.139c4.131,1.057 10.544,1.666 12.778,0.613c2.098,-0.989 0.621,-6.931 0.621,-6.931c0,0 9.886,2.288 12.526,-3.638c2.228,-4.998 -4.414,-10.07 -4.414,-10.07c0,0 11.862,-0.615 12.119,-3.944c0.269,-3.488 -7.309,-11.722 -18.579,-16.028c-7.136,-2.726 -15.202,1.582 -19.54,4.346Z" style="fill:#ffcf87;"/><path id="hand-left" serif:id="hand left" d="M480.974,654.161c5.371,3.422 17.319,23.596 9.117,29.513c0,0 -9.209,5.013 -13.606,6.139c-4.131,1.057 -10.544,1.666 -12.778,0.613c-2.098,-0.989 -0.621,-6.931 -0.621,-6.931c0,0 -9.886,2.288 -12.527,-3.638c-2.227,-4.998 4.414,-10.07 4.414,-10.07c0,0 -11.861,-0.615 -12.118,-3.944c-0.269,-3.488 7.309,-11.722 18.579,-16.028c7.136,-2.726 15.202,1.582 19.54,4.346Z" style="fill:#ffcf87;"/><g id="legs"><path d="M389.209,758.972l-62.511,-0.618l28.502,322.546l33.886,1.106l0.123,-323.034Z" style="fill:#1b1016;"/><path d="M478.688,758.354l-61.89,0l50.672,322.546l33.886,1.106l-22.668,-323.652Z" style="fill:#1b1016;"/><path d="M477.485,697.957l-151.762,0c-3.338,36.34 -2.749,51.569 -2.467,66.603l68.061,0.033l0.482,-27.952l22.03,-0.076l0.379,28.204l69.054,-0.001c-0.628,-21.58 -1.876,-45.171 -5.777,-66.811Z" style="fill:#78838b;"/><g><path d="M389.209,1071.73c-18.778,7.408 -28.077,-0.064 -36.37,-13.221l-32.496,15.519l10.059,15.19l0.133,3.509l61.026,0l-0.237,-17.869l-2.115,-3.128Z" style="fill:#2f79d0;"/><path d="M332.042,1092.72c0.054,-12.931 -9.091,-18.028 -13.171,-18.099l-18.87,14.575l0.133,3.509l31.908,0.015Z" style="fill:#fff4f3;"/><path d="M330.243,1069.12l7.228,6.498" style="fill:none;stroke:#ededed;stroke-width:3.5px;"/><path d="M339.611,1065.06l7.228,6.498" style="fill:none;stroke:#ededed;stroke-width:3.5px;"/></g><g><path d="M467.992,1071.73c18.778,7.408 28.078,-0.064 36.371,-13.221l32.496,15.519l20.342,15.175l-0.134,3.509l-91.427,0.015l0.238,-17.869l2.114,-3.128Z" style="fill:#2f79d0;"/><path d="M525.16,1092.72c-0.055,-12.931 9.09,-18.028 13.171,-18.099l18.87,14.575l-0.134,3.509l-31.907,0.015Z" style="fill:#fff4f3;"/><path d="M526.958,1069.12l-7.228,6.498" style="fill:none;stroke:#ededed;stroke-width:3.5px;"/><path d="M517.59,1065.06l-7.228,6.498" style="fill:none;stroke:#ededed;stroke-width:3.5px;"/></g></g><path d="M432.3,325.459c19.032,-6.983 38.008,-9.799 57.521,-12.468l-0.074,-4.632c-27.996,-10.291 -48.414,0.292 -57.447,17.1Z" style="fill:#250c00;"/></g></svg>