<?xml version="1.0" encoding="UTF-8" standalone="no"?><!DOCTYPE svg PUBLIC "-//W3C//DTD SVG 1.1//EN" "http://www.w3.org/Graphics/SVG/1.1/DTD/svg11.dtd"><svg width="100%" height="100%" viewBox="0 0 800 1200" version="1.1" xmlns="http://www.w3.org/2000/svg" xmlns:xlink="http://www.w3.org/1999/xlink" xml:space="preserve" xmlns:serif="http://www.serif.com/" style="fill-rule:evenodd;clip-rule:evenodd;stroke-linecap:round;stroke-linejoin:round;stroke-miterlimit:1.5;"><g id="avatar_02-pose_01"><g id="head"><path d="M446.768,114.999c123.186,13.49 136.702,134.955 129.081,203.27c-8.935,80.11 -91.558,124.207 -168.586,114.586c-77.027,-9.62 -144.015,-71.729 -135.518,-151.886c5.899,-55.644 55.099,-179.102 175.023,-165.97Z" style="fill:#391100;"/><path d="M316.455,239.063c73.823,19.373 149.968,25.917 227.988,22.089c-6.898,48.234 -31.875,192.592 -138.276,178.923c-103.84,-13.341 -93.334,-165.86 -89.712,-201.012Z" style="fill:#ffcf87;"/><path d="M416.843,320.528l-14.944,29.967l8.824,9.398" style="fill:none;stroke:#f0a04f;stroke-width:9px;"/><path d="M379.533,382.462c18.912,16.263 39.796,19.931 63.059,8.398" style="fill:none;stroke:#f0a04f;stroke-width:9px;"/><path d="M386.432,319.246c-18.02,-9.288 -36.501,-14.434 -55.533,-19.502l0.648,-4.586c29.055,-6.742 48.004,6.29 54.885,24.088Z" style="fill:#250c00;"/><path d="M452.774,327.532c19.751,-4.571 38.93,-5.013 58.623,-5.244l0.501,-4.605c-26.505,-13.682 -48.077,-5.71 -59.124,9.849Z" style="fill:#250c00;"/><path d="M431.207,438.759l-45.335,-5.662l-3.95,31.625l45.335,5.662l3.95,-31.625Z" style="fill:#ffcf87;"/></g><path id="arm-right" serif:id="arm right" d="M349.522,524.592l-28.432,-17.856l-27.188,84.093l-79.442,-56.324l-8.788,32.011l101.953,73.039l41.897,-114.963Z" style="fill:#ffcf87;"/><path id="arm-left" serif:id="arm left" d="M474.52,530.679l18.818,-28.006c26.383,22.914 43.231,49.53 50.085,80.024c-8.684,45.117 -31.576,76.58 -57.594,100.977c0,0 -9.156,-29.448 -9.117,-29.513c11.237,-18.83 26.471,-39.07 34.854,-71.464c-8.868,-19.469 -21.937,-36.314 -37.046,-52.018Z" style="fill:#ffcf87;"/><g id="body"><path d="M403.162,462.339c17.522,0 27.001,0.564 26.883,3.475c-0.288,7.102 -9.361,18.434 -26.883,18.434c-17.523,0 -29.367,-11.458 -29.721,-18.556c-0.111,-2.23 12.198,-3.353 29.721,-3.353Z" style="fill:#ffcf87;"/><path id="body1" serif:id="body" d="M401.84,483.375c-20.82,0.048 -28.429,-17.935 -28.429,-17.935c-21.248,-0.254 -45.624,14.521 -55.896,48.398l22.493,39.926l2.388,-6.954c0,0 0.044,0.029 0.044,0.346c0,11.603 6.726,16.803 15.575,19.692c0.35,26.198 -1.613,52.101 -12.861,76.819c-9.107,20.013 -17.865,37.524 -19.687,56.29l151.953,-0.12c-1.771,-18.728 -8.466,-36.399 -15.755,-56.184c-8.918,-24.209 -14.365,-49.832 -12.443,-78.457c14.299,-3.544 16.98,-16.493 13.549,-34.39l15.098,6.369l20.829,-34.904c-20.974,-16.357 -40.435,-35.971 -68.653,-36.741c0,0 -7.385,17.797 -28.205,17.845Z" style="fill:#7e0000;"/></g><path id="hand-left" serif:id="hand left" d="M480.974,654.161c5.371,3.422 17.319,23.596 9.117,29.513c0,0 -9.209,5.013 -13.606,6.139c-4.131,1.057 -10.544,1.666 -12.778,0.613c-2.098,-0.989 -0.621,-6.931 -0.621,-6.931c0,0 -9.886,2.288 -12.527,-3.638c-2.227,-4.998 4.414,-10.07 4.414,-10.07c0,0 -11.861,-0.615 -12.118,-3.944c-0.269,-3.488 7.309,-11.722 18.579,-16.028c7.136,-2.726 15.202,1.582 19.54,4.346Z" style="fill:#ffcf87;"/><path id="hand-right" serif:id="hand right" d="M209.325,565.201c4.329,-4.126 11.789,-24.82 4.786,-29.948c-2.605,-1.907 -25.857,-5.3 -28.583,-3.37c-4.511,3.196 11.623,14.615 10.316,15.609c0,0 -37.896,-8.171 -38.722,-1.736c-0.695,5.427 15.157,22.006 27.189,22.889c7.619,0.56 21.291,0.105 25.014,-3.444Z" style="fill:#ffcf87;"/><g id="legs"><path d="M389.209,758.972l-60.054,-59.015l-48.441,176.067l70.713,188.378l27.507,-19.486l-49.906,-166.937l60.181,-119.007Z" style="fill:#1b1016;"/><path d="M478.688,758.354l-61.89,0l50.672,322.546l36.953,0.369l-25.735,-322.915Z" style="fill:#1b1016;"/><path d="M477.485,697.957l-151.762,0c-6.523,25.214 -11.167,46.725 -14.887,65.072l78.373,1.855l13.953,-27.475l10.667,-0.844l0.379,28.204l69.054,-0.001c-0.628,-21.58 -1.876,-45.171 -5.777,-66.811Z" style="fill:#78838b;"/><g><path d="M374.79,1029.4c-10.645,17.151 -22.566,16.707 -37.073,11.102l-16.809,31.847l17.137,6.183l2.202,2.736l48.962,-36.425l-10.856,-14.195l-3.563,-1.248Z" style="fill:#2f79d0;"/><path d="M341.455,1080.37c-7.674,-10.408 -18.054,-9.039 -21.37,-6.66l-6.441,22.956l2.202,2.736l25.609,-19.032Z" style="fill:#fff4f3;"/><path d="M325.922,1062.5l9.678,0.899" style="fill:none;stroke:#ededed;stroke-width:3.5px;"/><path d="M331.018,1053.66l9.678,0.899" style="fill:none;stroke:#ededed;stroke-width:3.5px;"/></g><g><path d="M467.992,1071.73c18.778,7.408 28.078,-0.064 36.371,-13.221l32.496,15.519l20.342,15.175l-0.134,3.509l-91.427,0.015l0.238,-17.869l2.114,-3.128Z" style="fill:#2f79d0;"/><path d="M525.16,1092.72c-0.055,-12.931 9.09,-18.028 13.171,-18.099l18.87,14.575l-0.134,3.509l-31.907,0.015Z" style="fill:#fff4f3;"/><path d="M526.958,1069.12l-7.228,6.498" style="fill:none;stroke:#ededed;stroke-width:3.5px;"/><path d="M517.59,1065.06l-7.228,6.498" style="fill:none;stroke:#ededed;stroke-width:3.5px;"/></g></g></g></svg>