<?xml version="1.0" encoding="UTF-8" standalone="no"?><!DOCTYPE svg PUBLIC "-//W3C//DTD SVG 1.1//EN" "http://www.w3.org/Graphics/SVG/1.1/DTD/svg11.dtd"><svg width="100%" height="100%" viewBox="0 0 800 1200" version="1.1" xmlns="http://www.w3.org/2000/svg" xmlns:xlink="http://www.w3.org/1999/xlink" xml:space="preserve" xmlns:serif="http://www.serif.com/" style="fill-rule:evenodd;clip-rule:evenodd;stroke-linecap:round;stroke-linejoin:round;stroke-miterlimit:1.5;"><g id="avatar_01-pose_01"><g id="head"><path d="M395.072,143.752c31.819,0 95.617,22.066 105.714,36.927c22.499,33.114 19.877,95.13 19.877,95.13c28.278,20.869 13.828,63.891 -16.351,65.482c-2.017,18.154 -32.122,72.807 -104.312,73.468c-71.637,0.657 -109.487,-53.256 -108.705,-71.254c-37.032,-6.728 -36.711,-56.413 -12.445,-67.917c0,0 -2.903,-63.748 16.298,-96.467c8.955,-15.26 67.302,-35.369 99.924,-35.369Z" style="fill:#834a0b;"/><rect x="367.025" y="405.291" width="59.961" height="46.814" style="fill:#834a0b;"/><path d="M486.738,126.211c-1.862,-7.583 -7.674,-12.062 -20.993,-10.641c-4.306,-6.632 -9.435,-12.288 -22.901,-8.051c-4.724,-7.967 -16.872,-15.31 -29.338,-7.978c-1.309,-10.821 -18.831,-8.466 -22.347,0.902c-10.249,-8.934 -14.574,-6.275 -24.134,3.981c-10.533,-5.876 -19.806,-4.492 -27.276,7.281c-11.974,-2.954 -20.422,0.689 -24.753,12.039c-8.526,-0.586 -14.526,2 -15.724,10.613c-8.12,-0.017 -10.713,4.985 -8.726,14.147c-9.404,4.553 -11.371,12.782 -5.546,24.864c-9.918,7.654 -8.591,16.892 -4.347,26.54c-6.338,5.868 -7.537,13.777 -1.708,24.478c-7.577,7.619 -8.929,15.326 -1.614,23.152c-4.914,7.425 -6.562,15.036 -0.721,23.074c0,0 -0.234,32.174 -0.242,32.155c0,0 7.105,6.853 7.161,6.362c5.707,-49.948 -3.049,-100.241 18.421,-117.179c11.535,-9.099 67.252,0.699 98.05,0.082c29.141,-0.584 85.028,-9.447 93.283,-3.358c20.952,15.453 18.637,63.268 19.188,111.76l6.343,0c1.872,-20.322 2.887,-58.477 2.887,-58.477c5.039,-11.852 5.918,-23.483 -1.427,-34.677c5.005,-8.767 5.559,-17.598 -3.681,-26.57c4.698,-8.374 1.061,-15.903 -6.365,-23.049c2.02,-9.955 -0.906,-17.864 -12.458,-22.206c1.117,-7.682 -3.714,-9.657 -11.032,-9.244Z" style="fill:#391100;"/><path d="M315.778,252.272c13.097,-15.227 26.686,-19.817 41.451,1.026" style="fill:none;stroke:#391100;stroke-width:7.66px;"/><path d="M437.718,252.252c13.098,-14.21 26.687,-18.493 41.452,0.957" style="fill:none;stroke:#391100;stroke-width:7.29px;"/><path d="M390.382,341.439l0.994,-54.093" style="fill:none;stroke:#000;stroke-opacity:0.5;stroke-width:5.5px;"/><g id="eye-right"><ellipse id="eye-right1" serif:id="eye-right" cx="339.07" cy="292.784" rx="13.035" ry="17.197"/><path d="M341.203,280.062c3.628,-0.53 7.184,3.211 7.935,8.35c0.752,5.138 -1.584,9.741 -5.212,10.272c-3.628,0.53 -7.183,-3.211 -7.935,-8.35c-0.751,-5.138 1.584,-9.741 5.212,-10.272Z" style="fill:#fff;fill-opacity:0.75;"/><path d="M335.608,298.773c1.66,-0.243 3.198,0.86 3.432,2.462c0.235,1.601 -0.923,3.099 -2.584,3.342c-1.66,0.242 -3.198,-0.861 -3.432,-2.462c-0.234,-1.602 0.924,-3.099 2.584,-3.342Z" style="fill:#fff;fill-opacity:0.75;"/></g><g id="eye-left"><ellipse id="eye-left1" serif:id="eye-left" cx="461.085" cy="292.784" rx="13.035" ry="17.197"/><path d="M457.622,296.555c1.66,-0.243 3.198,0.86 3.432,2.462c0.235,1.601 -0.923,3.099 -2.583,3.341c-1.661,0.243 -3.199,-0.86 -3.433,-2.462c-0.234,-1.601 0.924,-3.099 2.584,-3.341Z" style="fill:#fff;fill-opacity:0.74;"/><path d="M462.947,277.844c3.629,-0.53 7.184,3.211 7.935,8.35c0.752,5.138 -1.584,9.741 -5.212,10.271c-3.628,0.531 -7.183,-3.21 -7.935,-8.349c-0.751,-5.139 1.584,-9.741 5.212,-10.272Z" style="fill:#fff;fill-opacity:0.74;"/></g><path d="M368.175,362.043c18.749,17.184 39.069,18.482 61.344,0" style="fill:none;stroke:#391100;stroke-width:5.5px;"/><path d="M430.781,359.201c-22.132,8.302 -43.328,8.838 -63.391,0l0,9.842c-0.134,7.514 20.61,17.637 31.095,17.61c10.649,-0.028 32.208,-9.374 32.296,-17.61l0,-9.842Z" style="fill:#fff;stroke:#472806;stroke-width:7.42px;"/><ellipse cx="339.07" cy="292.784" rx="27.788" ry="30.354" style="fill:#81aac0;fill-opacity:0.22;stroke:#000;stroke-width:3.5px;"/><ellipse cx="461.489" cy="291.566" rx="27.788" ry="30.354" style="fill:#81aac0;fill-opacity:0.22;stroke:#000;stroke-width:3.5px;"/><path d="M366.859,292.784l66.842,0" style="fill:none;stroke:#000;stroke-width:3.5px;"/></g><g id="legs"><path d="M476.842,735.206l-158.705,-0.512l13.711,362.714l48.975,-0.034l-2.793,-339.551l36.727,0l-0.901,339.101l45.038,0.384l17.948,-362.102Z" style="fill:#9d9974;"/><path d="M380.928,1068.7c-13.835,10.257 -30.397,8.025 -48.208,0.075l-34.593,24.255l0.139,10.651l82.662,0l0,-34.981Z" style="fill:#48273c;"/><path d="M412.938,1068.7c13.835,10.257 30.397,8.025 48.208,0.075l34.593,24.255l-0.139,10.651l-82.662,0l0,-34.981Z" style="fill:#48273c;"/></g><g id="body"><path d="M445.381,445.635c-7.38,-4.091 -12.725,-9.85 -16.728,-16.709l-31.164,21.426l-31.958,-21.336c-5.266,6.267 -11.54,11.385 -18.6,15.608c6.171,31.696 24.611,56.984 50.558,78.349c23.137,-22.395 42.051,-46.596 47.892,-77.338Z" style="fill:#fff;"/><path d="M406.324,457.346l-9.006,-5.241l-8.216,5.512l4.119,20.759l-5.577,47.693l20.148,0l-7.792,-47.496l6.324,-21.227Z" style="fill:#48273c;"/><path d="M474.225,456.187l-31.241,-12.067c-6.211,22.65 -20.602,47.189 -44.117,76.748c-20.487,-18.643 -40.737,-44.802 -49.588,-78.337l-33.987,13.14l0,283.177l161.55,0l-2.617,-282.661Z" style="fill:#001034;"/><path d="M365.301,480.9l32.221,-30.303l30.038,29.688" style="fill:none;stroke:#343434;stroke-width:5.5px;"/><path d="M442.942,443.88c-9.051,26.084 -23.088,52.432 -45.224,75.763c-23.941,-22.854 -38.98,-49.32 -48.45,-77.112l-6.334,2.392c9.769,32.528 18.145,64.737 54.784,92.596c29.6,-27.075 45.459,-57.335 51.366,-91.135l-6.142,-2.504Z" style="fill:#042578;"/></g><g id="arm-right" serif:id="arm right"><path d="M154.863,89.343c1.569,8.09 5.621,38.403 10.108,54.405c0.161,0.573 2.075,0.732 2.703,-0.056c1.967,-2.47 3.848,-7.553 5.858,-13.104c3.626,-10.011 11.717,-9.614 12.444,-9.327c4.808,1.901 -3.319,14.124 -4.967,32.58c-1.938,21.697 -26.954,38.026 -33.3,37.587c-6.495,-0.448 -26.269,-14.781 -32.966,-32.543c-7.202,-19.103 -9.234,-40.655 -8.587,-48.69c0.751,-9.333 7.12,-10.895 8.224,-5.908c1.932,8.738 4.271,23.656 4.351,24.234c0.271,1.959 2.463,1.858 2.295,-0.434c-1.066,-14.532 -5.687,-30.915 -5.259,-36.274c0.67,-8.395 9.146,-8.024 10.538,-1.065c1.779,8.896 5.001,30.67 6.123,34.475c0.607,2.062 2.275,1.656 1.98,-0.464c-1.293,-9.291 -5.486,-34.891 -5.984,-40.23c-0.671,-7.207 9.587,-9.675 11.229,-0.824c2.337,12.589 6.589,37.832 7.326,40.009c0.481,1.42 1.899,1.155 1.759,-0.395c-0.567,-6.286 -3.577,-23.651 -4.859,-32.095c-1.259,-8.297 9.58,-9.125 10.984,-1.881Z" style="fill:#834a0b;"/><path d="M317.69,552.173l0.447,-97.671l-40.555,-11.971l-70.431,-114.081l-35.945,-147.012l-42.761,4.228l31.458,157.086c-7.403,15.409 139.945,233.971 157.787,209.421Z" style="fill:#001034;"/></g><g id="arm-left" serif:id="arm left"><path d="M632.642,89.343c-1.569,8.09 -5.621,38.403 -10.108,54.405c-0.161,0.573 -2.075,0.732 -2.703,-0.056c-1.967,-2.47 -3.847,-7.553 -5.858,-13.104c-3.626,-10.011 -11.717,-9.614 -12.444,-9.327c-4.808,1.901 3.32,14.124 4.968,32.58c1.937,21.697 26.953,38.026 33.299,37.587c6.495,-0.448 26.269,-14.781 32.966,-32.543c7.202,-19.103 9.234,-40.655 8.587,-48.69c-0.751,-9.333 -7.12,-10.895 -8.223,-5.908c-1.933,8.738 -4.271,23.656 -4.352,24.234c-0.271,1.959 -2.463,1.858 -2.295,-0.434c1.066,-14.532 5.687,-30.915 5.26,-36.274c-0.67,-8.395 -9.147,-8.024 -10.539,-1.065c-1.778,8.896 -5.001,30.67 -6.122,34.475c-0.608,2.062 -2.276,1.656 -1.981,-0.464c1.293,-9.291 5.487,-34.891 5.984,-40.23c0.672,-7.207 -9.586,-9.675 -11.229,-0.824c-2.337,12.589 -6.588,37.832 -7.326,40.009c-0.48,1.42 -1.899,1.155 -1.759,-0.395c0.568,-6.286 3.578,-23.651 4.859,-32.095c1.259,-8.297 -9.58,-9.125 -10.984,-1.881Z" style="fill:#834a0b;"/><path d="M469.815,552.173l-0.447,-97.671l40.555,-11.971l70.431,-114.081l35.946,-147.012l42.76,4.228l-31.458,157.086c7.403,15.409 -139.945,233.971 -157.787,209.421Z" style="fill:#001034;"/></g><g id="zettel"><path d="M695.676,595.561l-79.111,-62.77l-76.885,98.437l67.205,57.391l88.791,-93.058Z" style="fill:#cacaca;"/><path d="M205.709,476.649l-60.44,80.905l100.634,73.986l55.41,-68.848l-95.604,-86.043Z" style="fill:#f4f4f4;"/><path d="M254.594,773.242l7.325,100.722l124.503,-10.013l-3.228,-88.317l-128.6,-2.392Z" style="fill:#f4f4f4;"/><path d="M553.649,970.745l-82.639,-58.046l-71.01,102.756l70.44,53.371l83.209,-98.081Z" style="fill:#f4f4f4;"/><path d="M249.267,912.699l-78.639,63.361l79.109,96.659l70.771,-52.931l-71.241,-107.089Z" style="fill:#e1e1e1;"/></g></g></svg>