<?xml version="1.0" encoding="UTF-8" standalone="no"?><!DOCTYPE svg PUBLIC "-//W3C//DTD SVG 1.1//EN" "http://www.w3.org/Graphics/SVG/1.1/DTD/svg11.dtd"><svg width="100%" height="100%" viewBox="0 0 800 1200" version="1.1" xmlns="http://www.w3.org/2000/svg" xmlns:xlink="http://www.w3.org/1999/xlink" xml:space="preserve" xmlns:serif="http://www.serif.com/" style="fill-rule:evenodd;clip-rule:evenodd;stroke-linecap:round;stroke-linejoin:round;stroke-miterlimit:1.5;"><g id="avatar_04-pose_01"><g><path d="M391.502,145.762c61.4,-16.425 100.879,4.367 100.879,4.367l-0.037,-18.799l12.561,13.636l14.168,-6.499l-2.872,9.562l13.91,0.502l-17.053,11.15c65.308,52.008 50.935,142.826 9.077,202.027c-1.001,1.416 -3.368,0.555 -5.112,0.129l-211.641,-29.025c-2.387,-24.749 -4.271,-81.009 11.255,-106.565c-13.678,14.564 -14.241,23.737 -17.852,28.512c0,0 -1.312,-83.844 92.717,-108.997Z" style="fill:#391100;"/><path d="M430.158,426.56l-62.821,-9.139l-3.502,24.074l28.049,23.449l34.772,-14.311l3.502,-24.073Z" style="fill:#ffbd82;"/><path d="M341.539,233.728c-2.394,-9.3 2.982,-25.048 13.955,-33.469c-12.543,3.424 -35.924,54.04 -35.924,54.04c-5.164,24.6 -9.926,50.061 -6.062,78.704c0,0 -8.052,-0.357 -8.087,-0.414c5.335,49.097 27.006,91.807 89.329,101.204c70.523,10.633 107.528,-29.6 121.209,-77.774c0.615,-2.166 -10.252,-1.422 -10.252,-1.422c0,0 17.455,-28.404 21.656,-41.999c12.884,-77.683 -36.727,-57.548 -40.833,-113.861c-29.195,18.667 -45.233,-7.352 -82.786,14.344l6.833,-16.803c-18.748,5.909 -40.715,13.076 -47.199,25.473c-1.85,-12.562 9.598,-20.705 19.201,-26.702c-20.096,9.715 -31.768,21.827 -41.04,38.679Z" style="fill:#ffbd82;"/><g id="eye-right"><path id="eye-right1" serif:id="eye-right" d="M358.574,284.444c7.119,1.036 11.79,9.502 10.423,18.894c-1.366,9.392 -8.255,16.176 -15.374,15.141c-7.119,-1.036 -11.789,-9.502 -10.423,-18.894c1.366,-9.392 8.255,-16.177 15.374,-15.141Z" style="fill:#391100;"/></g><g id="eye-left"><path id="eye-left1" serif:id="eye-left" d="M476.718,301.63c7.119,1.036 11.79,9.502 10.424,18.894c-1.367,9.392 -8.256,16.177 -15.375,15.141c-7.119,-1.036 -11.789,-9.502 -10.423,-18.894c1.366,-9.392 8.255,-16.176 15.374,-15.141Z" style="fill:#391100;"/></g><path d="M410.742,301.283l-13.436,31l6.377,13.487" style="fill:none;stroke:#000;stroke-opacity:0.24;stroke-width:7px;"/><path d="M383.597,380.621c11.62,8.847 23.852,10.972 36.77,5.582" style="fill:none;stroke:#000;stroke-opacity:0.24;stroke-width:5.61px;"/><path d="M499.485,392.559c-23.88,34.969 -70.087,29.094 -78.188,24.716c-5.967,-3.224 -10.776,-7.506 -13.945,-13.285c-1.186,-2.164 -6.358,-3.047 -8.367,-1.245c-4.986,4.472 -11.156,7.785 -19.601,8.868c-8.349,1.07 -42.098,6.115 -69.8,-50.474c12.578,57.579 52.221,67.07 86.05,72.03c35.503,5.205 74.089,3.149 103.851,-40.61Z" style="fill:#391100;"/><path d="M343.187,267.072c11.543,-6.096 24.136,-7.426 39.322,3.01" style="fill:none;stroke:#391100;stroke-width:9px;"/><path d="M498.456,291.48c-9.328,-9.133 -21.021,-13.995 -38.55,-8.318" style="fill:none;stroke:#391100;stroke-width:9px;"/><path d="M445.503,379.61c0.034,-3.061 -6.193,-10.273 -7.322,-9.924c0,0 3.27,9.924 0.91,9.388c-5.714,-1.296 -24.04,-15.544 -35.194,-17.167c-10.831,-1.575 -29.823,6.97 -35.214,6.566c-2.387,-0.179 2.872,-8.991 2.872,-8.991c-1.236,-0.276 -8.331,5.483 -9.077,8.382c-0.779,3.029 -0.605,7.931 1.57,8.338c6.578,1.229 25.37,-2.681 37.899,-0.96c12.586,1.729 30.748,8.646 37.617,11.331c2.948,1.152 5.898,-3.225 5.939,-6.963Z" style="fill:#391100;"/></g><g><path d="M472.85,704.614l-156.568,0.271l17.338,368.276l46.374,0l-3.841,-318.034l35.5,0.087l-2.981,317.947l49.383,0.501l14.795,-369.048Z" style="fill:#c68736;"/><path d="M376.292,1069.67l-44.414,-19.238l-37.041,23.312l-0.056,5.034l81.947,0l-0.436,-9.108Z" style="fill:#391100;"/><path d="M413.843,1069.67l44.414,-19.238l37.042,23.312l0.055,5.034l-81.946,0l0.435,-9.108Z" style="fill:#391100;"/></g><g><path d="M450.164,705.551l-1.568,-246.548l-6.393,-3.277l-13.972,-4.109l-0.347,-7.255l-31.971,15.479l-35.369,-17.488l0.345,13.373l-6.93,0.715l-11.042,3.046l-5.932,245.727l113.179,0.337Z" style="fill:#ecedf7;"/><path d="M352.956,457.502l9.54,31.687l33.726,-25.526l28.818,25.373l12.124,-32.726" style="fill:none;stroke:#616161;stroke-width:4.5px;"/><path d="M481.396,473.308l-3.452,255.3l-48.323,-10.554l11.92,-262.415l39.855,17.669Z" style="fill:#342c25;"/><path d="M366.148,715.638l-11.37,-259.912l-43.379,12.82l-1.819,274.699l56.568,-27.607Z" style="fill:#342c25;"/><path d="M361.773,616.729l-6.995,-161.003l-23.935,7.37l-14.701,34.022l17.253,23.123l-16.399,11.224l44.777,85.264Z" style="fill:#68584a;"/><path d="M434.448,612.667l7.066,-156.976l17.483,7.681l20.961,34.038l-17.788,22.713l16.132,11.603l-43.854,80.941Z" style="fill:#68584a;"/></g><g><path id="arm-right" d="M139.043,349.625c0,0 31.178,70.341 55.52,99.493c29.063,34.804 78.239,104.734 118.856,109.335l-1.375,-90.133c-16.594,7.193 -61.313,-29.474 -83.88,-53.863c-23.593,-25.497 -57.678,-99.12 -57.678,-99.12l-31.443,34.288Z" style="fill:#342c25;"/><path d="M146.278,239.387c2.377,8.427 9.257,40.11 15.494,56.693c0.223,0.594 2.36,0.645 2.995,-0.224c1.988,-2.722 3.675,-8.192 5.469,-14.162c3.236,-10.767 12.245,-10.843 13.075,-10.585c5.484,1.709 -2.573,15.082 -2.95,34.623c-0.444,22.974 -26.917,41.703 -33.993,41.629c-7.242,-0.076 -30.31,-13.967 -39.138,-32.268c-9.494,-19.683 -13.443,-42.262 -13.357,-50.765c0.099,-9.878 7.044,-11.912 8.66,-6.726c2.832,9.087 6.599,24.658 6.734,25.262c0.455,2.047 2.879,1.807 2.512,-0.598c-2.325,-15.243 -8.741,-32.218 -8.688,-37.889c0.083,-8.885 9.518,-9.011 11.609,-1.766c2.674,9.263 7.962,32.002 9.505,35.942c0.836,2.135 2.655,1.606 2.161,-0.61c-2.165,-9.708 -8.831,-36.418 -9.803,-42.012c-1.312,-7.551 9.876,-10.778 12.395,-1.554c3.583,13.119 10.285,39.449 11.274,41.698c0.646,1.467 2.199,1.101 1.922,-0.523c-1.125,-6.587 -5.83,-24.696 -7.916,-33.513c-2.049,-8.662 9.912,-10.197 12.04,-2.652Z" style="fill:#ffbd82;"/></g><path id="bag" d="M353.829,454.655c-8.706,-1.485 -13.866,0.017 -19.323,6.208c24.863,116.556 74.406,203.325 133.43,274.748l-0.549,104.929c16.066,8.063 32.233,6.805 48.454,0.57l1.124,-135.532l-38.941,0.248c0,0 -0.788,6.68 -0.832,6.623c-58.817,-76.257 -108.139,-163.248 -123.363,-257.794Z" style="fill:#4f3b32;"/><g><path id="hand-left" d="M539.162,752.338c2.962,5.993 5.455,20.789 2.05,31.702c-5.67,18.175 -14.235,33.296 -24.313,46.658c-5.137,6.811 -15.643,0.427 -14.277,-9.102l5.735,-43.522c-1.646,-2.38 -3.284,-2.272 -4.916,-0.581l-4.439,24.791c-1.193,7.066 -11.617,6.471 -11.909,-1.205l-2.271,-37.931c1.47,-5.47 4.902,-9.55 10.647,-11.992l43.693,1.182Z" style="fill:#ffbd82;"/><path id="arm-left" d="M495.933,751.289c0,0 -2.78,-76.351 -5.829,-108.138c-2.657,-27.713 -12.462,-82.586 -12.462,-82.586l1.187,-88.396c0,0 31.291,7.702 35.6,20.742c9.571,28.971 17.422,109.654 21.828,153.081c3.62,35.677 4.609,107.482 4.609,107.482l-44.933,-2.185Z" style="fill:#342c25;"/></g></g></svg>