<?xml version="1.0" encoding="UTF-8" standalone="no"?><!DOCTYPE svg PUBLIC "-//W3C//DTD SVG 1.1//EN" "http://www.w3.org/Graphics/SVG/1.1/DTD/svg11.dtd"><svg width="100%" height="100%" viewBox="0 0 800 1200" version="1.1" xmlns="http://www.w3.org/2000/svg" xmlns:xlink="http://www.w3.org/1999/xlink" xml:space="preserve" xmlns:serif="http://www.serif.com/" style="fill-rule:evenodd;clip-rule:evenodd;stroke-linecap:round;stroke-linejoin:round;stroke-miterlimit:1.5;"><g id="avatar_01-pose_00"><g id="head"><path d="M395.072,143.752c31.819,0 95.617,22.066 105.714,36.927c22.499,33.114 19.877,95.13 19.877,95.13c28.278,20.869 13.828,63.891 -16.351,65.482c-2.017,18.154 -32.122,72.807 -104.312,73.468c-71.637,0.657 -109.487,-53.256 -108.705,-71.254c-37.032,-6.728 -36.711,-56.413 -12.445,-67.917c0,0 -2.903,-63.748 16.298,-96.467c8.955,-15.26 67.302,-35.369 99.924,-35.369Z" style="fill:#834a0b;"/><rect x="367.025" y="405.291" width="59.961" height="46.814" style="fill:#834a0b;"/><path d="M486.738,126.211c-1.862,-7.583 -7.674,-12.062 -20.993,-10.641c-4.306,-6.632 -9.435,-12.288 -22.901,-8.051c-4.724,-7.967 -16.872,-15.31 -29.338,-7.978c-1.309,-10.821 -18.831,-8.466 -22.347,0.902c-10.249,-8.934 -14.574,-6.275 -24.134,3.981c-10.533,-5.876 -19.806,-4.492 -27.276,7.281c-11.974,-2.954 -20.422,0.689 -24.753,12.039c-8.526,-0.586 -14.526,2 -15.724,10.613c-8.12,-0.017 -10.713,4.985 -8.726,14.147c-9.404,4.553 -11.371,12.782 -5.546,24.864c-9.918,7.654 -8.591,16.892 -4.347,26.54c-6.338,5.868 -7.537,13.777 -1.708,24.478c-7.577,7.619 -8.929,15.326 -1.614,23.152c-4.914,7.425 -6.562,15.036 -0.721,23.074c0,0 -0.234,32.174 -0.242,32.155c0,0 7.105,6.853 7.161,6.362c5.707,-49.948 -3.049,-100.241 18.421,-117.179c11.535,-9.099 67.252,0.699 98.05,0.082c29.141,-0.584 85.028,-9.447 93.283,-3.358c20.952,15.453 18.637,63.268 19.188,111.76l6.343,0c1.872,-20.322 2.887,-58.477 2.887,-58.477c5.039,-11.852 5.918,-23.483 -1.427,-34.677c5.005,-8.767 5.559,-17.598 -3.681,-26.57c4.698,-8.374 1.061,-15.903 -6.365,-23.049c2.02,-9.955 -0.906,-17.864 -12.458,-22.206c1.117,-7.682 -3.714,-9.657 -11.032,-9.244Z" style="fill:#391100;"/><path d="M315.778,256.694c13.097,-8.968 26.686,-11.671 41.451,0.604" style="fill:none;stroke:#391100;stroke-width:5.5px;"/><path d="M437.718,256.605c13.098,-8.968 26.687,-11.671 41.452,0.604" style="fill:none;stroke:#391100;stroke-width:5.5px;"/><path d="M390.382,341.439l0.994,-54.093" style="fill:none;stroke:#000;stroke-opacity:0.5;stroke-width:5.5px;"/><g id="eye-right"><ellipse id="eye-right1" serif:id="eye-right" cx="339.07" cy="292.784" rx="13.035" ry="17.197"/><path d="M341.203,280.062c3.628,-0.53 7.184,3.211 7.935,8.35c0.752,5.138 -1.584,9.741 -5.212,10.272c-3.628,0.53 -7.183,-3.211 -7.935,-8.35c-0.751,-5.138 1.584,-9.741 5.212,-10.272Z" style="fill:#fff;fill-opacity:0.75;"/><path d="M335.608,298.773c1.66,-0.243 3.198,0.86 3.432,2.462c0.235,1.601 -0.923,3.099 -2.584,3.342c-1.66,0.242 -3.198,-0.861 -3.432,-2.462c-0.234,-1.602 0.924,-3.099 2.584,-3.342Z" style="fill:#fff;fill-opacity:0.75;"/></g><g id="eye-left"><ellipse id="eye-left1" serif:id="eye-left" cx="461.085" cy="292.784" rx="13.035" ry="17.197"/><path d="M457.622,296.555c1.66,-0.243 3.198,0.86 3.432,2.462c0.235,1.601 -0.923,3.099 -2.583,3.341c-1.661,0.243 -3.199,-0.86 -3.433,-2.462c-0.234,-1.601 0.924,-3.099 2.584,-3.341Z" style="fill:#fff;fill-opacity:0.74;"/><path d="M462.947,277.844c3.629,-0.53 7.184,3.211 7.935,8.35c0.752,5.138 -1.584,9.741 -5.212,10.271c-3.628,0.531 -7.183,-3.21 -7.935,-8.349c-0.751,-5.139 1.584,-9.741 5.212,-10.272Z" style="fill:#fff;fill-opacity:0.74;"/></g><path d="M368.175,362.043c18.749,17.184 39.069,18.482 61.344,0" style="fill:none;stroke:#391100;stroke-width:5.5px;"/><ellipse cx="339.07" cy="292.784" rx="27.788" ry="30.354" style="fill:#81aac0;fill-opacity:0.22;stroke:#000;stroke-width:3.5px;"/><ellipse cx="461.489" cy="291.566" rx="27.788" ry="30.354" style="fill:#81aac0;fill-opacity:0.22;stroke:#000;stroke-width:3.5px;"/><path d="M366.859,292.784l66.842,0" style="fill:none;stroke:#000;stroke-width:3.5px;"/></g><g id="legs"><path d="M476.842,735.206l-158.705,-0.512l13.711,362.714l48.975,-0.034l-2.793,-339.551l36.727,0l-0.901,339.101l45.038,0.384l17.948,-362.102Z" style="fill:#9d9974;"/><path d="M380.928,1068.7c-13.835,10.257 -30.397,8.025 -48.208,0.075l-34.593,24.255l0.139,10.651l82.662,0l0,-34.981Z" style="fill:#48273c;"/><path d="M412.938,1068.7c13.835,10.257 30.397,8.025 48.208,0.075l34.593,24.255l-0.139,10.651l-82.662,0l0,-34.981Z" style="fill:#48273c;"/></g><g id="body"><path d="M445.381,445.635c-7.38,-4.091 -12.725,-9.85 -16.728,-16.709l-31.164,21.426l-31.958,-21.336c-5.266,6.267 -11.54,11.385 -18.6,15.608c6.171,31.696 24.611,56.984 50.558,78.349c23.137,-22.395 42.051,-46.596 47.892,-77.338Z" style="fill:#fff;"/><path d="M406.324,457.346l-9.006,-5.241l-8.216,5.512l4.119,20.759l-5.577,47.693l20.148,0l-7.792,-47.496l6.324,-21.227Z" style="fill:#48273c;"/><path d="M474.225,456.187l-31.241,-12.067c-6.211,22.65 -20.602,47.189 -44.117,76.748c-20.487,-18.643 -40.737,-44.802 -49.588,-78.337l-33.987,13.14l0,283.177l161.55,0l-2.617,-282.661Z" style="fill:#001034;"/><path d="M365.301,480.9l32.221,-30.303l30.038,29.688" style="fill:none;stroke:#343434;stroke-width:5.5px;"/><path d="M442.942,443.88c-9.051,26.084 -23.088,52.432 -45.224,75.763c-23.941,-22.854 -38.98,-49.32 -48.45,-77.112l-6.334,2.392c9.769,32.528 18.145,64.737 54.784,92.596c29.6,-27.075 45.459,-57.335 51.366,-91.135l-6.142,-2.504Z" style="fill:#042578;"/></g><g id="arm-left" serif:id="arm left"><path d="M292.099,757.823l-43.722,-3.335c-0.791,32.343 6.149,63.198 30.065,84.53c5.303,4.73 12.782,-4.286 10.223,-10.563c-7.336,-17.99 -16.493,-35.821 -4.262,-46.788c5.793,-0.027 7.689,9.188 7.525,21.421c-0.107,7.975 8.842,6.482 9.113,0.065c0,0 0.896,-30.875 -0.595,-38.43c-0.698,-3.542 -8.347,-6.9 -8.347,-6.9Z" style="fill:#834a0b;"/><path d="M317.69,552.173l0.447,-97.671c0,0 -36.377,20.906 -42.043,37.606c-9.793,28.858 -19.556,137.617 -19.556,137.617l-10.792,127.342l49.69,0.756l5.644,-124.844c3.191,-33.257 7.964,-75.398 16.61,-80.806Z" style="fill:#001034;"/></g><g><path d="M461.119,579.062l-100.494,9.983l13.298,124.195l88.201,-5.561l-1.005,-128.617Z" style="fill:#cacaca;"/><path d="M459.119,577.062l-100.494,9.983l13.298,124.195l88.201,-5.561l-1.005,-128.617Z" style="fill:#fff;"/></g><g id="arm-left1" serif:id="arm left"><path d="M436.021,637.797l-4.257,30.286c-22.391,0.548 -49.436,14.6 -66.463,7.634c-7.567,-3.096 -0.047,-12.015 -3.883,-12.318c-5.192,-0.41 -7.305,-13.996 -1.005,-16.799c3.311,-1.473 2.611,-2.388 1.835,-6.341c-1.537,-7.827 18.32,-9.45 23.794,-7.988c3.872,1.035 11.574,3.838 17.59,4.503c8.33,0.921 32.389,1.023 32.389,1.023Z" style="fill:#834a0b;"/><path d="M472.281,552.173l-0.447,-97.671c0,0 36.376,20.906 42.043,37.606c9.792,28.858 25.641,163.261 10.655,175.875c-9.25,7.786 -120.9,6.197 -120.9,6.197l0.741,-37.428l84.518,-3.773c-3.191,-33.257 -7.965,-75.398 -16.61,-80.806Z" style="fill:#001034;"/></g></g></svg>