<?xml version="1.0" encoding="UTF-8" standalone="no"?><!DOCTYPE svg PUBLIC "-//W3C//DTD SVG 1.1//EN" "http://www.w3.org/Graphics/SVG/1.1/DTD/svg11.dtd"><svg width="100%" height="100%" viewBox="0 0 800 1200" version="1.1" xmlns="http://www.w3.org/2000/svg" xmlns:xlink="http://www.w3.org/1999/xlink" xml:space="preserve" xmlns:serif="http://www.serif.com/" style="fill-rule:evenodd;clip-rule:evenodd;stroke-linecap:round;stroke-linejoin:round;stroke-miterlimit:1.5;"><g id="avatar_03-pose_01"><g id="head"><path d="M361.475,154.658c22.56,-5.083 48.57,-7.241 72.544,-3.83c73.466,10.455 106.744,78.915 104.048,139.182c-2.605,58.228 18.186,190.577 18.186,190.577c-14.145,-20.348 -15.82,-40.618 -30.218,-54.628c7.626,30.673 8.979,51.579 -1.423,80.281c-2.61,-23.339 -9.107,-44.585 -26.206,-60.124c-1.362,25.654 -7.681,37.869 -15.794,45.218c-0.321,-28.822 -11.703,-55.829 -25.236,-82.484l-47.225,28.259c-39.573,6.656 -89.93,3.347 -106.594,-14.378c-39.759,-42.293 -62.351,-109.176 -54.888,-161.085c9.916,-68.977 77.694,-99.077 112.806,-106.988Z" style="fill:#b90c2b;"/><path d="M293.003,322.737c-4.244,-52.287 161.648,-31.934 185.151,-85.986c0,0 28.978,68.868 17.358,124.764c-11.642,56 -30.922,85.159 -86.949,89.039c-38.169,4.426 -62.447,-7.134 -80.53,-26.841c-17.401,-18.963 -35.03,-100.976 -35.03,-100.976Z" style="fill:#ffe2c4;"/><path d="M377.794,410.342c18.843,13.703 36.636,13.567 53.069,-4.502" style="fill:none;stroke:#ebad8f;stroke-width:9px;"/><path d="M395.406,342.668l-11.02,28.04l11.845,13.622" style="fill:none;stroke:#ebad8f;stroke-width:9px;"/><g id="eye-right"><path id="eye-right1" serif:id="eye-right" d="M340.453,333.576c7.17,-0.586 13.618,6.619 14.391,16.078c0.772,9.46 -4.422,17.615 -11.592,18.201c-7.17,0.585 -13.618,-6.619 -14.391,-16.079c-0.772,-9.459 4.422,-17.615 11.592,-18.2Z"/><path d="M342.943,337.862c3.572,-0.824 7.421,2.615 8.588,7.676c1.167,5.06 -0.786,9.838 -4.359,10.662c-3.573,0.824 -7.421,-2.616 -8.588,-7.676c-1.167,-5.06 0.786,-9.838 4.359,-10.662Z" style="fill:#fff;fill-opacity:0.75;"/><path d="M338.889,356.966c1.635,-0.377 3.257,0.597 3.621,2.174c0.364,1.577 -0.668,3.164 -2.303,3.541c-1.635,0.377 -3.258,-0.597 -3.621,-2.174c-0.364,-1.578 0.668,-3.164 2.303,-3.541Z" style="fill:#fff;fill-opacity:0.75;"/></g><g id="eye-left"><path id="eye-left1" serif:id="eye-left" d="M459.444,323.858c7.17,-0.586 13.619,6.619 14.391,16.078c0.773,9.46 -4.421,17.615 -11.591,18.201c-7.17,0.585 -13.619,-6.619 -14.391,-16.079c-0.773,-9.459 4.421,-17.615 11.591,-18.2Z"/><path d="M457.7,345.037c1.635,-0.377 3.257,0.597 3.621,2.174c0.364,1.578 -0.668,3.164 -2.303,3.541c-1.635,0.378 -3.258,-0.597 -3.622,-2.174c-0.363,-1.577 0.669,-3.164 2.304,-3.541Z" style="fill:#fff;fill-opacity:0.74;"/><path d="M461.485,325.955c3.572,-0.824 7.421,2.616 8.588,7.676c1.167,5.06 -0.786,9.838 -4.359,10.662c-3.573,0.824 -7.421,-2.615 -8.588,-7.676c-1.167,-5.06 0.786,-9.838 4.359,-10.662Z" style="fill:#fff;fill-opacity:0.74;"/></g><g><path d="M378.15,327.746c-24.843,-9.99 -52,-9.7 -82.798,6.762c10.82,31.663 26.443,49.716 49.087,47.879c23.55,-1.912 33.648,-22.685 33.711,-54.641Z" style="fill:#c2d2e6;fill-opacity:0.34;stroke:#000;stroke-width:9px;"/><path d="M420.809,324.262c27.39,-13.681 54.978,-16.578 82.798,-6.762c-5.539,32.999 -18.026,53.348 -40.668,55.209c-23.548,1.935 -36.883,-16.925 -42.13,-48.447Z" style="fill:#c2d2e6;fill-opacity:0.34;stroke:#000;stroke-width:9px;"/><path d="M379.397,343.021l43.472,-3.55" style="fill:none;stroke:#000;stroke-width:9px;"/></g><path d="M428.029,445.09l-40.029,3.269l2.067,25.308l40.029,-3.269l-2.067,-25.308Z" style="fill:#ffe2c4;"/></g><path d="M433.123,470.763c0,0 -15.064,-6.475 -22.681,-6.604c-7.617,-0.128 -23.021,5.834 -23.021,5.834l-1.087,25.531l48.024,0l-1.235,-24.761Z" style="fill:#ffe2c4;"/><g><path d="M286.048,486.166c-0.308,-6.626 -2.888,-19.689 -2.888,-19.689c-4.423,-5.405 -8.019,-5.1 -10.706,1.479l0.446,18.21l-31.384,-29.152c-7.481,-2.821 -7.575,0.845 -6.26,5.747l15.635,19.181l-2.755,2.686l-19.825,-15.526c-7.746,-1.662 -9.366,1.013 -6.588,6.801l20.365,19.704l-1.706,2.379l-20.339,-10.123c-6.125,-0.717 -6.583,2.076 -4.06,6.716l19.493,14.465c0,0 16.002,6.704 19.796,13.796c8.097,15.135 28.786,77.014 28.786,77.014l26.685,-25.505c0,0 -21.139,-43.111 -25.255,-57.808c-2.731,-9.751 0.948,-22.031 0.56,-30.375Z" style="fill:#ffe2c4;"/><path d="M363.356,543.542l-1.288,-58.257c-32.086,20.703 -37.105,57.954 -45.334,91.957l-5.463,-4.138l-27.213,26.183c5.144,17.528 16.633,27.883 35.919,29.424c22.396,-10.421 35.978,-40.798 43.379,-85.169Z" style="fill:#424064;"/></g><g><path d="M504.338,663.151l-28.861,-0.64l-1.051,109.996c19.65,-7.924 28.823,-46.727 29.912,-109.356Z" style="fill:#ffe2c4;"/><path d="M461.058,544.431l3.381,-57.843c32.085,20.703 36.802,58.42 38.065,89.999c1.233,30.828 1.984,92.539 1.984,92.539c-10.68,9.458 -20.38,5.026 -29.729,-4.392l-13.701,-120.303Z" style="fill:#424064;"/></g><path d="M466.054,487.419l-32.866,-16.564c-3.545,7.748 -9.302,14.04 -20.117,14.293c-14.002,0.329 -22.109,-5.157 -25.666,-15.128l-26.014,15.602l0.352,62.237c4.472,27.264 7.698,54.894 3.632,84.668c-12.304,41.636 -20.754,71.578 -20.641,75.529l132.76,0.324c-1.194,-23.197 -8.741,-45.639 -17.606,-67.924c-5.045,-26.946 -3.388,-53.558 0.725,-80.049l5.441,-72.988Z" style="fill:#424064;"/><g><path d="M477.57,707.38l-132.836,0c-6.497,19.772 -4.126,45.784 0,73.031c8.563,60.152 14.239,170.271 17.634,284.929l37.632,-5.791l0,-329.491l22.93,-0.421l33.011,337.2l35.752,-9.114l-14.123,-350.343Z" style="fill:#b4aaa5;"/><g><path d="M400.48,1053.84c-18.778,7.408 -28.078,-0.064 -36.371,-13.22l-32.496,15.518l10.059,15.19l0.134,3.509l61.025,0l-0.237,-17.869l-2.114,-3.128Z" style="fill:#48283a;"/><path d="M343.312,1074.83c0.055,-12.931 -9.091,-18.028 -13.171,-18.099l-18.87,14.575l0.133,3.509l31.908,0.015Z" style="fill:#fff4f3;"/><path d="M341.514,1051.22l7.228,6.498" style="fill:none;stroke:#ededed;stroke-width:3.5px;"/><path d="M350.881,1047.17l7.229,6.498" style="fill:none;stroke:#ededed;stroke-width:3.5px;"/></g><g><path d="M454.428,1053.84c18.778,7.408 28.078,-0.064 36.371,-13.22l32.496,15.518l-10.059,15.19l-0.134,3.509l-61.026,0l0.238,-17.869l2.114,-3.128Z" style="fill:#48283a;"/><path d="M511.596,1074.83c-0.055,-12.931 9.091,-18.028 13.171,-18.099l18.87,14.575l-0.134,3.509l-31.907,0.015Z" style="fill:#fff4f3;"/><path d="M513.394,1051.22l-7.228,6.498" style="fill:none;stroke:#ededed;stroke-width:3.5px;"/><path d="M504.027,1047.17l-7.229,6.498" style="fill:none;stroke:#ededed;stroke-width:3.5px;"/></g></g></g></svg>