<?xml version="1.0" encoding="UTF-8" standalone="no"?><!DOCTYPE svg PUBLIC "-//W3C//DTD SVG 1.1//EN" "http://www.w3.org/Graphics/SVG/1.1/DTD/svg11.dtd"><svg width="100%" height="100%" viewBox="0 0 800 1200" version="1.1" xmlns="http://www.w3.org/2000/svg" xmlns:xlink="http://www.w3.org/1999/xlink" xml:space="preserve" xmlns:serif="http://www.serif.com/" style="fill-rule:evenodd;clip-rule:evenodd;stroke-linecap:round;stroke-linejoin:round;stroke-miterlimit:1.5;"><g id="avatar_03-pose_00"><g id="head"><path d="M387.857,151.851c22.899,-3.23 48.998,-3.264 72.614,2.088c72.372,16.4 99.966,87.342 92.374,147.189c-7.336,57.823 2.613,191.425 2.613,191.425c-12.442,-21.431 -12.461,-41.771 -25.671,-56.907c5.104,31.192 4.751,52.139 -7.953,79.899c-0.702,-23.473 -5.448,-45.178 -21.225,-62.057c-3.445,25.458 -10.738,37.118 -19.423,43.782c2.027,-28.752 -7.119,-56.597 -18.438,-84.264l-49.368,24.321c-39.983,3.413 -89.904,-3.984 -105.07,-23.007c-36.184,-45.389 -53.257,-113.889 -41.594,-165.019c15.498,-67.941 85.501,-92.423 121.141,-97.45Z" style="fill:#b90c2b;"/><path d="M305.931,313.799c0.025,-52.46 163.71,-18.67 191.535,-70.63c0,0 23.276,70.998 7.145,125.762c-16.162,54.868 -37.751,82.36 -93.908,81.667c-38.402,1.305 -61.659,-12.193 -78.078,-33.307c-15.799,-20.316 -26.694,-103.492 -26.694,-103.492Z" style="fill:#ffe2c4;"/><path d="M383.309,408.015c17.665,15.191 35.41,16.504 53.26,-0.168" style="fill:none;stroke:#ebad8f;stroke-width:9px;"/><path d="M406.371,342l-13.265,27.049l10.696,14.541" style="fill:none;stroke:#ebad8f;stroke-width:9px;"/><g id="eye-right"><ellipse id="eye-right1" serif:id="eye-right" cx="352.34" cy="345.66" rx="13.035" ry="17.197"/><path d="M354.473,332.939c3.628,-0.531 7.184,3.21 7.935,8.349c0.751,5.139 -1.584,9.741 -5.212,10.272c-3.628,0.53 -7.184,-3.211 -7.935,-8.35c-0.751,-5.138 1.584,-9.741 5.212,-10.271Z" style="fill:#fff;fill-opacity:0.75;"/><path d="M348.878,351.649c1.66,-0.243 3.198,0.86 3.432,2.462c0.234,1.601 -0.923,3.099 -2.584,3.342c-1.66,0.242 -3.198,-0.861 -3.432,-2.462c-0.234,-1.602 0.923,-3.099 2.584,-3.342Z" style="fill:#fff;fill-opacity:0.75;"/></g><g id="eye-left"><ellipse id="eye-left1" serif:id="eye-left" cx="471.728" cy="345.66" rx="13.035" ry="17.197"/><path d="M468.265,349.431c1.66,-0.243 3.199,0.86 3.433,2.462c0.234,1.601 -0.924,3.099 -2.584,3.342c-1.66,0.242 -3.198,-0.861 -3.433,-2.463c-0.234,-1.601 0.924,-3.099 2.584,-3.341Z" style="fill:#fff;fill-opacity:0.74;"/><path d="M473.591,330.72c3.628,-0.53 7.183,3.211 7.935,8.35c0.751,5.138 -1.584,9.741 -5.212,10.272c-3.628,0.53 -7.184,-3.211 -7.935,-8.35c-0.752,-5.138 1.584,-9.741 5.212,-10.272Z" style="fill:#fff;fill-opacity:0.74;"/></g><g><path d="M390.387,325.722c-23.947,-11.979 -51.038,-13.9 -83.074,0c8.207,32.439 22.309,51.704 45.027,51.715c23.628,0.012 35.383,-19.87 38.047,-51.715Z" style="fill:#c2d2e6;fill-opacity:0.34;stroke:#000;stroke-width:9px;"/><path d="M433.188,325.722c28.413,-11.407 56.145,-12.048 83.073,0c-8.206,32.439 -22.308,51.704 -45.026,51.715c-23.628,0.012 -35.383,-19.87 -38.047,-51.715Z" style="fill:#c2d2e6;fill-opacity:0.34;stroke:#000;stroke-width:9px;"/><path d="M390.387,341.048l43.616,0" style="fill:none;stroke:#000;stroke-width:9px;"/></g><rect x="390.387" y="446.737" width="40.162" height="25.393" style="fill:#ffe2c4;"/></g><path d="M433.123,470.763c0,0 -15.064,-6.475 -22.681,-6.604c-7.617,-0.128 -23.021,5.834 -23.021,5.834l-1.087,25.531l48.024,0l-1.235,-24.761Z" style="fill:#ffe2c4;"/><g><path d="M503.338,662.151l-28.861,-0.64l-1.051,109.996c19.65,-7.924 28.823,-46.727 29.912,-109.356Z" style="fill:#ffe2c4;"/><path d="M460.058,543.431l3.381,-57.843c32.085,20.703 36.802,58.42 38.065,89.999c1.233,30.828 1.984,92.539 1.984,92.539c-10.68,9.458 -20.38,5.026 -29.729,-4.392l-13.701,-120.303Z" style="fill:#424064;"/></g><g><path d="M323.051,661.395l28.861,-0.64l1.051,109.996c-19.65,-7.924 -28.823,-46.727 -29.912,-109.356Z" style="fill:#ffe2c4;"/><path d="M366.331,542.675l-3.381,-57.842c-32.085,20.702 -36.802,58.419 -38.065,89.998c-1.233,30.829 -1.984,92.539 -1.984,92.539c10.68,9.458 20.38,5.027 29.729,-4.392l13.701,-120.303Z" style="fill:#424064;"/></g><path d="M466.054,487.419l-32.866,-16.564c-3.545,7.748 -9.302,14.04 -20.117,14.293c-14.002,0.329 -22.109,-5.157 -25.666,-15.128l-26.014,15.602l0.352,62.237c4.472,27.264 7.698,54.894 3.632,84.668c-12.304,41.636 -20.754,71.578 -20.641,75.529l132.76,0.324c-1.194,-23.197 -8.741,-45.639 -17.606,-67.924c-5.045,-26.946 -3.388,-53.558 0.725,-80.049l5.441,-72.988Z" style="fill:#424064;"/><g><path d="M477.57,707.38l-132.836,0c-6.497,19.772 -4.126,45.784 0,73.031c8.563,60.152 14.239,170.271 17.634,284.929l37.632,-5.791l0,-329.491l22.93,-0.421l33.011,337.2l35.752,-9.114l-14.123,-350.343Z" style="fill:#b4aaa5;"/><g><path d="M400.48,1053.84c-18.778,7.408 -28.078,-0.064 -36.371,-13.22l-32.496,15.518l10.059,15.19l0.134,3.509l61.025,0l-0.237,-17.869l-2.114,-3.128Z" style="fill:#48283a;"/><path d="M343.312,1074.83c0.055,-12.931 -9.091,-18.028 -13.171,-18.099l-18.87,14.575l0.133,3.509l31.908,0.015Z" style="fill:#fff4f3;"/><path d="M341.514,1051.22l7.228,6.498" style="fill:none;stroke:#ededed;stroke-width:3.5px;"/><path d="M350.881,1047.17l7.229,6.498" style="fill:none;stroke:#ededed;stroke-width:3.5px;"/></g><g><path d="M454.428,1053.84c18.778,7.408 28.078,-0.064 36.371,-13.22l32.496,15.518l-10.059,15.19l-0.134,3.509l-61.026,0l0.238,-17.869l2.114,-3.128Z" style="fill:#48283a;"/><path d="M511.596,1074.83c-0.055,-12.931 9.091,-18.028 13.171,-18.099l18.87,14.575l-0.134,3.509l-31.907,0.015Z" style="fill:#fff4f3;"/><path d="M513.394,1051.22l-7.228,6.498" style="fill:none;stroke:#ededed;stroke-width:3.5px;"/><path d="M504.027,1047.17l-7.229,6.498" style="fill:none;stroke:#ededed;stroke-width:3.5px;"/></g></g></g></svg>