<?xml version="1.0" encoding="UTF-8" standalone="no"?><!DOCTYPE svg PUBLIC "-//W3C//DTD SVG 1.1//EN" "http://www.w3.org/Graphics/SVG/1.1/DTD/svg11.dtd"><svg width="100%" height="100%" viewBox="0 0 800 1200" version="1.1" xmlns="http://www.w3.org/2000/svg" xmlns:xlink="http://www.w3.org/1999/xlink" xml:space="preserve" xmlns:serif="http://www.serif.com/" style="fill-rule:evenodd;clip-rule:evenodd;stroke-linecap:round;stroke-linejoin:round;stroke-miterlimit:1.5;"><g id="avatar_00-pose_01"><g id="leg-right"><path id="rute" d="M392.789,713.391l-55.203,-0.273l-30.734,358.688l38.389,1.391l47.548,-359.806Z" style="fill:#ffd3a6;"/><path id="latsch" d="M349.82,1073.2c-0.331,-2.339 -3.674,-6.061 -3.674,-6.061c-19.55,4.313 -33.697,2.761 -38.223,-9.239c0,0 -38.323,22.223 -46.063,27.933c-1.701,1.254 -0.38,6.327 -0.38,6.327l88.34,0.881c0,0 0.613,-15.524 0,-19.841Z" style="fill:#57340f;"/></g><g id="leg-right1" serif:id="leg-right"><path id="rute1" serif:id="rute" d="M414.69,713.391l55.202,-0.273l-12.472,358.688l-38.389,1.391l-4.341,-359.806Z" style="fill:#ffd3a6;"/><path id="latsch1" serif:id="latsch" d="M414.451,1073.2c0.525,-2.91 4.914,-7.385 4.914,-7.385c16.121,6.078 27.578,2.098 38.928,-7.915c0,0 36.702,22.223 44.119,27.933c1.674,1.289 0.38,6.327 0.38,6.327l-88.341,0.881c0,0 -0.819,-15.304 0,-19.841Z" style="fill:#57340f;"/></g><g id="head"><path id="hair" d="M278.904,225.813c23.116,-55.242 76.819,-116.885 149.123,-111.814c68.387,4.795 98.368,59.096 117.265,109.006c22.407,59.181 40.769,158.226 -2.831,212.006c-12.618,15.564 -101.971,62.423 -146.079,58.914c-46.229,-3.679 -125.167,-39.771 -144.747,-84.457c-19.58,-44.685 4.057,-128.186 27.269,-183.655Z" style="fill:#cb4f00;"/><path id="neck" d="M425.76,410.125l-43.646,-3.847l-8.059,91.441l43.646,3.847l8.059,-91.441Z" style="fill:#ffd3a6;"/><path id="skull" d="M316.37,252.95c-2.793,-20.446 42.131,-21.609 86.514,-20.261c37.913,1.151 76.869,-9.912 88.426,-21.477c-4.461,23.024 27.001,78.17 36.493,84.277c-13.24,88.34 -71.197,125.393 -127.727,120.093c-53.22,-4.989 -102.466,-42.422 -102.252,-137.807c17.923,9.747 19.942,-14.602 18.546,-24.825Z" style="fill:#ffd3a6;"/><path id="ear-left" d="M535.161,291.962c8.201,1.968 12.446,13.625 9.472,26.015c-2.973,12.39 -12.046,20.85 -20.248,18.882c-8.202,-1.969 -12.446,-13.626 -9.473,-26.015c2.974,-12.39 12.047,-20.851 20.249,-18.882Z" style="fill:#ffd3a5;"/><path id="ear-right" d="M292.427,276.78c-8.42,0.503 -14.638,11.238 -13.877,23.957c0.761,12.719 8.214,22.636 16.634,22.133c8.42,-0.504 14.637,-11.239 13.877,-23.958c-0.761,-12.719 -8.215,-22.636 -16.634,-22.132Z" style="fill:#ffd3a5;"/><path id="eye-brow-right" d="M335.376,253.944c13.919,-5.669 26.533,-3.576 38.255,3.834" style="fill:#ff6300;stroke:#cb4f00;stroke-width:9.5px;"/><path id="eye-brow-left" d="M458.377,265.003c13.919,-5.67 26.533,-3.576 38.255,3.834" style="fill:#ff6300;stroke:#cb4f00;stroke-width:9.5px;"/><path id="nose" d="M405.414,297.678l-12.597,33.523l10.195,7.345" style="fill:none;stroke:#e78b65;stroke-width:4.5px;"/><path id="mouth" d="M435.171,364.106c-19.606,-11.128 -39.876,-12.842 -60.794,-5.358c0,0 5.891,21.531 27.628,23.563c21.736,2.032 33.166,-18.205 33.166,-18.205Z" style="fill:#fff;stroke:#e78b65;stroke-width:3.5px;"/><g id="eye-right"><path id="eye-right1" serif:id="eye-right" d="M353.348,273.599c7.166,0.632 12.307,8.82 11.474,18.275c-0.833,9.454 -7.328,16.617 -14.494,15.986c-7.166,-0.632 -12.308,-8.821 -11.474,-18.275c0.833,-9.454 7.327,-16.617 14.494,-15.986Z" style="fill:#3f1500;"/><path d="M355.079,278.244c3.661,-0.21 6.874,3.829 7.172,9.014c0.297,5.184 -2.433,9.564 -6.094,9.774c-3.661,0.21 -6.874,-3.829 -7.171,-9.014c-0.298,-5.184 2.433,-9.564 6.093,-9.774Z" style="fill:#fff;fill-opacity:0.71;"/><path d="M347.863,296.391c1.675,-0.096 3.11,1.138 3.203,2.754c0.093,1.616 -1.192,3.006 -2.867,3.102c-1.675,0.096 -3.111,-1.138 -3.203,-2.754c-0.093,-1.616 1.192,-3.006 2.867,-3.102Z" style="fill:#fff;fill-opacity:0.71;"/></g><g id="eye-left"><path id="eye-left1" serif:id="eye-left" d="M474.696,286.521c7.166,0.631 12.308,8.82 11.474,18.274c-0.833,9.454 -7.327,16.617 -14.494,15.986c-7.166,-0.632 -12.307,-8.82 -11.474,-18.275c0.833,-9.454 7.328,-16.617 14.494,-15.985Z" style="fill:#3f1500;"/><path d="M469.406,307.102c1.675,-0.096 3.11,1.138 3.203,2.754c0.093,1.616 -1.192,3.006 -2.867,3.102c-1.675,0.096 -3.111,-1.138 -3.203,-2.754c-0.093,-1.616 1.192,-3.006 2.867,-3.102Z" style="fill:#fff;fill-opacity:0.71;"/><path d="M476.354,288.932c3.66,-0.21 6.873,3.829 7.171,9.014c0.297,5.184 -2.433,9.564 -6.094,9.774c-3.66,0.21 -6.874,-3.829 -7.171,-9.014c-0.298,-5.184 2.433,-9.564 6.094,-9.774Z" style="fill:#fff;fill-opacity:0.71;"/></g></g><g id="arm-right"><path d="M345.241,494.179l15.872,-46.544c-63.6,-38.878 -123.079,-67.087 -123.079,-67.087c0,0 -38.939,-163.378 -48.547,-203.09l-22.937,7.647c3.31,15.173 25.936,200.28 41.703,218.393c38.848,44.628 109.838,72.04 136.988,90.681Z" style="fill:#ffd3a6;"/><path d="M182.393,108.041c1.288,6.646 4.617,31.549 8.303,44.695c0.132,0.471 1.705,0.601 2.221,-0.046c1.616,-2.029 3.161,-6.205 4.812,-10.766c2.979,-8.224 9.626,-7.898 10.224,-7.662c3.95,1.562 -2.727,11.604 -4.081,26.765c-1.592,17.825 -22.144,31.24 -27.357,30.88c-5.336,-0.369 -21.58,-12.144 -27.082,-26.736c-5.917,-15.693 -7.586,-33.399 -7.055,-39.999c0.617,-7.668 5.85,-8.951 6.756,-4.854c1.588,7.178 3.509,19.433 3.575,19.908c0.223,1.61 2.023,1.527 1.885,-0.356c-0.875,-11.939 -4.672,-25.398 -4.32,-29.8c0.55,-6.897 7.514,-6.592 8.657,-0.875c1.461,7.309 4.109,25.196 5.03,28.322c0.499,1.694 1.869,1.361 1.627,-0.381c-1.062,-7.633 -4.507,-28.664 -4.916,-33.05c-0.552,-5.92 7.876,-7.949 9.225,-0.677c1.92,10.342 5.413,31.08 6.018,32.869c0.395,1.166 1.561,0.948 1.446,-0.325c-0.467,-5.164 -2.939,-19.43 -3.992,-26.367c-1.034,-6.816 7.87,-7.496 9.024,-1.545Z" style="fill:#ffd3a6;"/><path d="M342.595,504.192l18.518,-56.869l-40.51,-25.842l-7.398,57.263l29.39,25.448Z" style="fill:#6c8ed1;"/></g><g id="arm-left"><path d="M448.71,498.912l-3.999,-50.585c58.769,22.824 105.8,79.018 103.767,101.171c-3.01,32.794 -77.869,104.021 -77.455,117.464l-13.741,-29.183c13.273,-10.469 56.792,-79.141 55.455,-85.455c-2.408,-11.366 -51.776,-45.357 -64.027,-53.412Z" style="fill:#ffd3a6;"/><path d="M447.357,497.047l-2.646,-50.174c17.752,3.663 31.934,11.553 44.199,21.712l-24.15,42.03l-17.403,-13.568Z" style="fill:#6c8ed1;"/></g><g id="dress"><path d="M423.189,431.373l-21.908,57.187l-21.907,-53.686c-3.16,4.504 -10.241,9.897 -15.038,11.194c-7.353,1.988 -14.277,5.002 -20.883,8.782l-2.009,56.48c-6.249,19.934 -3.888,36.637 9.937,49.042c2.052,39.493 -5.053,75.482 -13.342,111.017c43.73,3.629 88.037,2.087 132.984,-5.186c-13.838,-32.518 -22.844,-66.289 -24.864,-101.868c15.026,-15.931 19.943,-35.64 13.051,-59.763l-5.143,-51.231c-5.286,-3.784 -10.444,-7.103 -15.864,-9.26c-4.858,-1.933 -12.286,-7.931 -15.014,-12.708Z" style="fill:#6c8ed1;"/><path d="M364.299,447.562l-0.928,33.386l26.156,-17.099l11.754,27.229l10.639,-26.047l29.87,12.797l-3.322,-32.074" style="fill:none;stroke:#000;stroke-opacity:0.23;stroke-width:3px;"/><path d="M471.023,665.271l-132.984,3.106c-2.17,22.361 -6.49,44.381 -8.515,67.652c-2.644,30.368 -6.729,61.223 -14.063,91.539c55.469,9.221 111.463,11.774 164.709,-2.218c-2.912,-25.716 -2.988,-52.136 -3.851,-78.305c-0.923,-28.021 0.804,-55.644 -5.296,-81.774Z" style="fill:#3f2d1b;"/></g><path d="M452.963,636.489c4.373,-2.026 13.699,-0.855 20.029,9.234c3.854,6.142 2.063,20.913 -4.422,23.43c-3.818,1.481 -7.211,-2.074 -4.917,-3.585c2.953,-1.944 3.419,-3.323 2.854,-3.712c-1.658,-1.142 -2.662,0.182 -6.726,2.06c-6.622,3.059 -7.169,-3.441 -2.168,-7.181c1.552,-1.16 4.863,-2.859 4.161,-3.861c-1.12,-1.599 -4.755,0.296 -9.05,2.028c-4.072,1.642 -7.156,-4.396 -2.081,-7.098c1.692,-0.902 9.102,-3.753 8.477,-5.806c-0.306,-1.005 -4.087,-0.064 -5.776,0.62c-6.716,2.723 -6.18,-3.441 -0.381,-6.129Z" style="fill:#ffd3a6;"/></g></svg>