<?xml version="1.0" encoding="UTF-8" standalone="no"?><!DOCTYPE svg PUBLIC "-//W3C//DTD SVG 1.1//EN" "http://www.w3.org/Graphics/SVG/1.1/DTD/svg11.dtd"><svg width="100%" height="100%" viewBox="0 0 800 1200" version="1.1" xmlns="http://www.w3.org/2000/svg" xmlns:xlink="http://www.w3.org/1999/xlink" xml:space="preserve" xmlns:serif="http://www.serif.com/" style="fill-rule:evenodd;clip-rule:evenodd;stroke-linecap:round;stroke-linejoin:round;stroke-miterlimit:1.5;"><g id="instructor"><path d="M468.421,737.918l-150.075,0l11.157,328.659c14.72,11.082 31.06,16.891 50.511,12.566l15.964,-305.979c0.353,-3.832 8.152,-4.482 8.147,0.703l7.97,305.106c14.193,4.511 30.684,0.199 49.17,-11.765l7.156,-329.29Z" style="fill:#525252;"/><g><path d="M290.317,685.205l-41.703,1.484c14.575,38.203 41.471,73.885 73.21,104.939c13.054,-14.526 18.447,-30.923 16.867,-49.022c-26.585,-18.423 -43.384,-37.511 -48.374,-57.401Z" style="fill:#ffcd90;"/><path d="M503.118,685.461l41.703,1.484c-14.574,38.203 -46.052,77.051 -77.791,108.105c-11.664,-15.642 -16.585,-32.037 -14.221,-49.247c26.584,-18.423 45.319,-40.452 50.309,-60.342Z" style="fill:#ffcd90;"/></g><g><path d="M379.477,1058c-9.373,14.274 -23.862,21.413 -52.972,8.162c0,0 -51.8,25.769 -51.999,33.073c-0.205,7.56 13.264,7.99 30.933,7.118l78.656,-0.616l-4.618,-47.737Z" style="fill:#f4ebe3;"/><path d="M380.5,1056.55c-9.373,14.273 -24.885,22.861 -53.995,9.61l-30.65,16.177l9.763,21.307l78.477,-3.428l-3.595,-43.666Z"/><path d="M305.501,1077.64l6.891,7.225" style="fill:none;stroke:#f4ebe3;stroke-width:2px;"/><path d="M315.426,1072.14l6.891,7.225" style="fill:none;stroke:#f4ebe3;stroke-width:2px;"/></g><g><path d="M411.431,1057.64c9.373,14.274 23.863,21.413 52.973,8.162c0,0 51.8,25.769 51.998,33.073c0.206,7.56 -13.264,7.99 -30.933,7.118l-78.656,-0.616l4.618,-47.737Z" style="fill:#f4ebe3;"/><path d="M410.409,1056.19c9.373,14.273 24.885,22.861 53.995,9.61l30.649,16.177l-9.763,21.308l-78.477,-3.429l3.596,-43.666Z"/><path d="M485.407,1077.29l-6.891,7.226" style="fill:none;stroke:#f4ebe3;stroke-width:2px;"/><path d="M475.483,1071.78l-6.891,7.225" style="fill:none;stroke:#f4ebe3;stroke-width:2px;"/></g><g><rect x="363.381" y="415.166" width="62.622" height="64.823" style="fill:#ffcd90;"/><path d="M512.68,286.079c14.671,3.98 21.816,24.779 15.947,46.418c-5.87,21.64 -22.546,35.977 -37.217,31.998c-14.671,-3.979 -21.816,-24.779 -15.947,-46.418c5.87,-21.639 22.546,-35.977 37.217,-31.998Z" style="fill:#ffcd90;"/><path d="M274.478,286.082c14.669,-3.987 31.352,10.343 37.233,31.979c5.88,21.637 -1.256,42.439 -15.924,46.426c-14.669,3.987 -31.353,-10.343 -37.233,-31.979c-5.88,-21.637 1.255,-42.439 15.924,-46.426Z" style="fill:#ffcd90;"/><path d="M388.039,117.427c114.61,0.091 126.212,77.914 126.212,142.112c0,17.634 -1.383,50.607 -7.281,79.287c-6.352,30.892 -30.385,49.589 -40.678,60.649c-14.941,16.053 -57.599,29.02 -78.253,29.02c-24.758,0 -44.783,-13.243 -67.567,-32.413c-21.476,-18.07 -46.458,-41.126 -46.458,-72.277c0,-64.198 -11.151,-206.477 114.025,-206.378Z" style="fill:#ffcd90;"/><ellipse cx="336.169" cy="302.866" rx="14.687" ry="17.108" style="fill:#401600;"/><ellipse cx="456.774" cy="302.374" rx="14.687" ry="17.108" style="fill:#401600;"/><path d="M437.857,376.533c-27.149,-2.002 -54.267,-1.892 -81.341,0c0,0 10.694,27.353 42.09,27.353c31.395,0 39.251,-27.353 39.251,-27.353Z" style="fill:#fcfcfc;stroke:#e99763;stroke-width:3px;"/><path d="M311.951,271.326c14.232,-8.698 27.01,-8.72 38.554,-1.381" style="fill:none;stroke:#401600;stroke-width:4px;"/><path d="M437.505,272.961c14.232,-8.698 27.01,-8.72 38.554,-1.381" style="fill:none;stroke:#401600;stroke-width:4px;"/><path d="M395.978,302.889l-16.524,36.38l17.733,9.355" style="fill:none;stroke:#e99763;stroke-width:3.5px;"/><path d="M483.721,138.083c-15.291,-34.142 -117.311,-69.383 -164.46,-28.484c-8.907,7.726 -31.823,-3.723 -29.258,-5.981c-2.389,8.513 1.454,18.469 1.454,18.469c-5.941,0.16 -14.103,-4.193 -18.944,-13.094c-4.833,13.092 -5.261,26.104 -2.103,39.05c-0.946,3.107 -12.687,-2.633 -12.687,-2.633c0,0 1.398,24.92 3.457,34.787c6.241,29.915 8.125,61.047 8.125,79.342c0,17.634 -2.649,49.594 2.013,49.356c17.966,-0.919 3.131,-91.207 11.989,-97.871c9.316,-7.008 20.721,-15.874 20.721,-15.874l-10.371,13.421c17.023,-0.854 30.738,-6.59 43.225,-14.137l-22.364,20.06c28.278,-0.951 36.278,-6.411 63.021,-22.02c-3.237,7.407 -8.295,15.531 -19.986,25.196c37.659,-4.598 81.432,-22.787 105.422,-42.136c-5.617,51.551 59.893,50.918 34.296,138.454c-1.673,5.723 7.319,-1.98 12.093,-7.919c38.415,-47.791 12.751,-173.765 -25.643,-167.986Z" style="fill:#5b2804;"/></g><g><path d="M425.555,453.323l-29.945,18.849l-32.235,-18.345l-16.152,13.534c0,0 -63.283,9.102 -76.966,33.51c-17.392,31.024 -27.387,152.636 -27.387,152.636l-6.15,3.971l0.27,30.151l60.948,-2.87l-0.609,-26.39l-5.214,-5.52l12.748,-87.577c7.018,58.755 10.625,119.508 6.767,184.636c28.706,3.167 82.859,0.634 83.062,-1.24l1.286,-3.962c7.953,3.128 57.202,4.461 72.578,0.34c-3.925,-52.815 8.305,-115.312 17.391,-171.506l14.367,85.919l-8.195,-0.09l-0.327,28.071l63.387,1.349l0.058,-27.407l-9.509,-10.556c0,0 -11.526,-120.503 -28.799,-151.33c-13.37,-23.86 -74.842,-33.632 -74.842,-33.632l-16.532,-12.541Z" style="fill:#a5d9f0;"/><path d="M395.978,748.203c5.289,-91.393 5.42,-182.981 0,-274.78" style="fill:none;stroke:#000;stroke-opacity:0.2;stroke-width:2px;"/><path d="M502.649,656.144l44.173,-0.512" style="fill:none;stroke:#000;stroke-opacity:0.2;stroke-width:2px;"/><path d="M288.761,656.144l-44.253,-0.512" style="fill:none;stroke:#000;stroke-opacity:0.2;stroke-width:2px;"/><path d="M347.927,468.07l19.114,30.689l28.937,-25.336l30.448,25.874l15.031,-32.366" style="fill:none;stroke:#000;stroke-opacity:0.2;stroke-width:2px;"/></g></g><ellipse cx="340.065" cy="298.252" rx="3.896" ry="4.122" style="fill:#fff;fill-opacity:0.47;"/><ellipse cx="461.189" cy="297.202" rx="3.896" ry="4.122" style="fill:#fff;fill-opacity:0.47;"/></svg>